<?xml version="1.0" encoding="UTF-8" standalone="no" ?>
<!DOCTYPE svg PUBLIC "-//W3C//DTD SVG 1.1//EN" "http://www.w3.org/Graphics/SVG/1.1/DTD/svg11.dtd">
<svg xmlns="http://www.w3.org/2000/svg" xmlns:xlink="http://www.w3.org/1999/xlink" version="1.1" width="1080" height="1080" viewBox="0 0 1080 1080" xml:space="preserve">
<desc>Created with Fabric.js 5.2.4</desc>
<defs>
</defs>
<g transform="matrix(1 0 0 1 540 540)" id="91aeec98-e893-43cb-bf25-0747f8e2399e"  >
<rect style="stroke: none; stroke-width: 1; stroke-dasharray: none; stroke-linecap: butt; stroke-dashoffset: 0; stroke-linejoin: miter; stroke-miterlimit: 4; fill: rgb(255,255,255); fill-rule: nonzero; opacity: 1; visibility: hidden;" vector-effect="non-scaling-stroke"  x="-540" y="-540" rx="0" ry="0" width="1080" height="1080" />
</g>
<g transform="matrix(1 0 0 1 540 540)" id="cec7db93-400b-470d-a161-af9ffa0d9aa6"  >
</g>
<g transform="matrix(1 0 0 1 540 522.96)"  >
<g style="" vector-effect="non-scaling-stroke"   >
		<g transform="matrix(1 0 0 1 0 0)"  >
<path style="stroke: none; stroke-width: 1; stroke-dasharray: none; stroke-linecap: butt; stroke-dashoffset: 0; stroke-linejoin: miter; stroke-miterlimit: 4; fill: rgb(29,68,65); fill-rule: nonzero; opacity: 1;" vector-effect="non-scaling-stroke"  transform=" translate(-3253.98, -739.89)" d="M 2998.000977 1144.54834 C 2985.02417 1144.14624 2972.890869 1144.820435 2961.102051 1143.115479 C 2937.340576 1139.679199 2918.287109 1127.280151 2903.081543 1108.911865 C 2881.410156 1082.732422 2859.832764 1056.474976 2838.217041 1030.249512 C 2832.495117 1023.307495 2827.052979 1016.112122 2821.010742 1009.461304 C 2801.670166 988.172668 2796.055176 962.651611 2799.362793 935.170593 C 2802.262695 911.076233 2806.970703 887.191101 2811.150391 863.260681 C 2822.031006 800.964172 2833.038086 738.689697 2844.037354 676.413879 C 2851.215576 635.773621 2858.145752 595.085693 2865.788574 554.532471 C 2872.039795 521.361572 2887.847656 493.701416 2914.161621 471.830292 C 2952.852783 439.671783 2990.94873 406.796387 3029.214844 374.128418 C 3050.031738 356.356781 3072.745605 342.254181 3100.122803 337.302307 C 3107.285645 336.006744 3114.675049 335.435516 3121.961182 335.429657 C 3255.593506 335.322144 3389.226074 335.533356 3522.857666 335.224487 C 3556.52124 335.146698 3583.322998 347.29245 3604.406006 373.794952 C 3630.53833 406.644104 3657.231201 439.071381 3684.467041 471.011658 C 3706.670166 497.049866 3713.37207 526.292114 3707.446533 559.472961 C 3691.355225 649.576599 3675.593994 739.739197 3659.700195 829.878174 C 3654.324951 860.361877 3648.903076 890.837463 3643.578613 921.329956 C 3637.643799 955.317688 3620.451172 982.582947 3594.339355 1004.667603 C 3565.591064 1028.981934 3536.958984 1053.43396 3508.275879 1077.825195 C 3495.58374 1088.617798 3482.899902 1099.4198 3470.194824 1110.196777 C 3450.262451 1127.104126 3427.994629 1139.347778 3401.805176 1143.011963 C 3392.612549 1144.298218 3383.209717 1144.480835 3373.902344 1144.487549 C 3248.935059 1144.578247 3123.968018 1144.54834 2998.000977 1144.54834 M 3360.690918 478.230865 C 3358.618652 479.904785 3356.48877 481.512299 3354.482666 483.262207 C 3238.69165 584.260925 3122.908691 685.268982 3007.147461 786.302002 C 3005.024414 788.154968 3003.172852 790.318909 2999.565186 794.001038 C 3005.270508 794.001038 3008.800537 794.000854 3012.330566 794.001038 C 3054.328369 794.002991 3096.326904 793.836426 3138.323486 794.072083 C 3162.466064 794.20752 3180.51123 814.485107 3177.814453 838.231873 C 3177.223389 843.435791 3175.315674 848.575012 3173.461914 853.537598 C 3153.878174 905.963013 3134.156494 958.337097 3114.589844 1010.768799 C 3113.57959 1013.47583 3111.145508 1016.279175 3112.97583 1019.843689 C 3127.720947 1010.293335 3483.613525 710.343506 3487.596924 703.978394 C 3469.655273 703.978394 3452.009033 703.979797 3434.362793 703.978088 C 3402.697998 703.975037 3371.031982 704.119873 3339.368652 703.908203 C 3321.171631 703.786621 3306.182861 692.622437 3301.077637 675.710449 C 3298.079346 665.777283 3299.487061 656.084167 3303.010498 646.366028 C 3322.085938 593.754639 3340.972412 541.074646 3359.810791 488.377838 C 3360.997803 485.05722 3361.226562 481.394012 3362.626465 478.115631 C 3362.432129 478.095947 3362.238037 478.076263 3360.690918 478.230865 z" stroke-linecap="round" />
</g>
		<g transform="matrix(1 0 0 1 -10.4 8.98)"  >
<path style="stroke: none; stroke-width: 1; stroke-dasharray: none; stroke-linecap: butt; stroke-dashoffset: 0; stroke-linejoin: miter; stroke-miterlimit: 4; fill: rgb(165,229,90); fill-rule: nonzero; opacity: 1;" vector-effect="non-scaling-stroke"  transform=" translate(-3243.58, -748.87)" d="M 3361.900879 477.890198 C 3361.226562 481.394012 3360.997803 485.05722 3359.810791 488.377838 C 3340.972412 541.074646 3322.085938 593.754639 3303.010498 646.366028 C 3299.487061 656.084167 3298.079346 665.777283 3301.077637 675.710449 C 3306.182861 692.622437 3321.171631 703.786621 3339.368652 703.908203 C 3371.031982 704.119873 3402.697998 703.975037 3434.362793 703.978088 C 3452.009033 703.979797 3469.655273 703.978394 3487.596924 703.978394 C 3483.613525 710.343506 3127.720947 1010.293335 3112.97583 1019.843689 C 3111.145508 1016.279175 3113.57959 1013.47583 3114.589844 1010.768799 C 3134.156494 958.337097 3153.878174 905.963013 3173.461914 853.537598 C 3175.315674 848.575012 3177.223389 843.435791 3177.814453 838.231873 C 3180.51123 814.485107 3162.466064 794.20752 3138.323486 794.072083 C 3096.326904 793.836426 3054.328369 794.002991 3012.330566 794.001038 C 3008.800537 794.000854 3005.270508 794.001038 2999.565186 794.001038 C 3003.172852 790.318909 3005.024414 788.154968 3007.147461 786.302002 C 3122.908691 685.268982 3238.69165 584.260925 3354.482666 483.262207 C 3356.48877 481.512299 3358.618652 479.904785 3361.331543 478.10199 C 3361.972412 477.973145 3361.900879 477.890167 3361.900879 477.890198 z" stroke-linecap="round" />
</g>
</g>
</g>
</svg>