<svg version="1.1" id="Layer_1" xmlns="http://www.w3.org/2000/svg" xmlns:xlink="http://www.w3.org/1999/xlink" x="0px"
	y="0px" width="100%" viewBox="0 0 4016 1919" enable-background="new 0 0 4016 1919" xml:space="preserve">
	<path fill="transparent" opacity="1.000000" stroke="none" d="
M2932.000000,1922.000000
	C1954.666870,1922.000000 978.333679,1922.000000 2.000393,1922.000000
	C2.000262,1282.000244 2.000262,642.000549 2.000131,2.000651
	C1340.666138,2.000434 2679.332275,2.000434 4017.999023,2.000217
	C4017.999268,641.999329 4017.999268,1281.998657 4017.999512,1921.999023
	C3656.333252,1922.000000 3294.666748,1922.000000 2932.000000,1922.000000
M2870.035156,1352.041870
	C2870.035156,1352.041870 2870.096436,1352.125000 2869.255371,1350.482300
	C2870.090820,1332.398804 2875.979980,1314.862915 2876.167969,1296.393066
	C2869.604736,1296.393066 2864.128662,1296.393066 2858.144043,1296.393066
	C2850.325195,1346.179688 2842.605225,1395.337158 2834.975098,1443.921021
	C2854.916504,1455.889893 2887.472412,1457.774536 2906.384033,1448.157349
	C2911.911133,1445.346680 2917.510986,1441.647827 2921.487549,1436.996704
	C2939.296387,1416.167480 2943.807861,1392.036133 2935.934326,1366.059082
	C2931.342285,1350.909180 2918.455811,1342.811157 2902.698486,1341.859375
	C2890.331299,1341.112183 2880.124268,1346.163818 2870.035156,1352.041870
M2682.866455,617.374634
	C2690.095947,610.023376 2696.891357,602.166016 2704.687012,595.473999
	C2711.467285,589.653320 2714.458496,582.819641 2715.998291,574.234863
	C2728.928711,502.151001 2742.216064,430.131256 2755.339111,358.081879
	C2756.686523,350.683838 2757.664062,343.218384 2758.914062,335.131744
	C2685.783936,335.131744 2613.965088,335.131744 2541.743896,335.131744
	C2541.067139,337.743347 2540.351074,339.909698 2539.951904,342.132996
	C2527.721191,410.285004 2515.540527,478.445892 2503.312744,546.598450
	C2488.204834,630.806519 2473.105469,715.016235 2457.892090,799.205322
	C2455.293945,813.583801 2452.142578,827.862488 2448.293457,842.923035
	C2440.972900,850.191895 2433.890137,857.723694 2426.244629,864.632812
	C2421.523193,868.899414 2419.146729,873.707520 2418.030518,879.922424
	C2407.093262,940.822693 2395.911377,1001.678955 2384.817383,1062.551147
	C2381.249268,1082.129639 2377.735352,1101.717896 2374.087891,1121.903320
	C2447.112061,1121.903320 2519.495605,1121.903320 2592.029785,1121.903320
	C2592.728516,1118.729614 2593.388672,1116.156372 2593.854004,1113.548218
	C2596.832764,1096.845947 2599.725586,1080.128174 2602.726807,1063.430054
	C2614.437012,998.274475 2626.192627,933.126892 2637.902832,867.971191
	C2649.671875,802.488281 2661.454834,737.007751 2673.124023,671.507019
	C2676.271240,653.841675 2679.029053,636.106812 2682.866455,617.374634
M2031.628052,1426.631104
	C2065.907471,1397.487793 2100.158203,1368.310669 2134.475586,1339.212036
	C2162.011230,1315.863892 2178.700439,1286.729614 2184.322754,1250.774536
	C2190.442139,1211.639771 2197.875732,1172.709961 2204.770752,1133.697021
	C2215.141846,1075.017822 2225.562256,1016.347473 2235.925293,957.666870
	C2246.983887,895.047913 2257.994873,832.420532 2269.036865,769.798645
	C2280.656982,703.899353 2292.288818,638.002075 2303.917236,572.104187
	C2315.024902,509.156738 2326.146973,446.211884 2337.234863,383.260925
	C2339.982910,367.657318 2342.622070,352.034485 2345.406006,335.870544
	C2272.285645,335.870544 2200.108643,335.870544 2127.305908,335.870544
	C2119.721191,378.619781 2112.205566,420.978973 2104.359619,465.201263
	C2101.032715,460.760468 2099.012207,458.163574 2097.096924,455.491364
	C2081.568604,433.825348 2066.461426,411.841797 2050.394775,390.583282
	C2040.786865,377.870850 2030.234741,365.751282 2019.104614,354.343292
	C2007.504517,342.453400 1992.409424,337.115845 1975.918213,335.987427
	C1969.606323,335.555573 1963.265503,335.376678 1956.937744,335.373291
	C1881.605103,335.332764 1806.268311,335.821106 1730.941772,335.140259
	C1695.145020,334.816711 1664.412109,346.195099 1637.476196,369.163452
	C1617.187988,386.463287 1596.834595,403.686615 1576.516724,420.951813
	C1555.436890,438.864471 1534.358765,456.779358 1513.290649,474.705841
	C1486.454834,497.539917 1468.944580,525.689331 1463.263306,560.908569
	C1459.022339,587.199524 1454.111694,613.382446 1449.486450,639.611267
	C1432.720337,734.691711 1415.853394,829.754456 1399.235352,924.860779
	C1394.028320,954.661682 1400.348633,981.679932 1419.971680,1005.313843
	C1448.499512,1039.672363 1476.809937,1074.211792 1505.164185,1108.714111
	C1523.834229,1131.432129 1547.993774,1143.319336 1577.195435,1144.162598
	C1601.508667,1144.864868 1625.853882,1144.549194 1650.184937,1144.534912
	C1708.182129,1144.500854 1766.179565,1144.424194 1824.176514,1144.268677
	C1846.163940,1144.209595 1866.411743,1137.886353 1883.952515,1124.764282
	C1899.133179,1113.407593 1913.869507,1101.343140 1927.927856,1088.625366
	C1952.391724,1066.494385 1976.173950,1043.610229 2000.271484,1021.073425
	C2002.018311,1019.439636 2004.002808,1018.060181 2007.425171,1015.325012
	C1991.771973,1104.115723 1976.474365,1190.888550 1961.020630,1278.547607
	C1874.866821,1278.547607 1789.280762,1278.547607 1703.694580,1278.547607
	C1618.105957,1278.547607 1532.517334,1278.547607 1446.618530,1278.547607
	C1434.761597,1345.914307 1422.779907,1412.214600 1411.306152,1479.603027
	C1416.102173,1479.603027 1419.387329,1479.603027 1422.672607,1479.603027
	C1588.004272,1479.603027 1753.335938,1479.567505 1918.667603,1479.635132
	C1949.040161,1479.647461 1976.445557,1470.949341 2000.507935,1452.403564
	C2010.793945,1444.475830 2020.555298,1435.867310 2031.628052,1426.631104
M2999.000732,1144.548462
	C3123.968018,1144.548340 3248.935059,1144.578247 3373.902344,1144.487549
	C3383.209717,1144.480835 3392.612549,1144.298218 3401.805176,1143.011963
	C3427.994629,1139.347778 3450.262451,1127.104126 3470.194824,1110.196777
	C3482.899902,1099.419800 3495.583740,1088.617798 3508.275879,1077.825195
	C3536.958984,1053.433960 3565.591064,1028.981934 3594.339355,1004.667603
	C3620.451172,982.582947 3637.643799,955.317688 3643.578613,921.329956
	C3648.903076,890.837463 3654.324951,860.361877 3659.700195,829.878174
	C3675.593994,739.739197 3691.355225,649.576599 3707.446533,559.472961
	C3713.372070,526.292114 3706.670166,497.049866 3684.467041,471.011658
	C3657.231201,439.071381 3630.538330,406.644104 3604.406006,373.794952
	C3583.322998,347.292450 3556.521240,335.146698 3522.857666,335.224487
	C3389.226074,335.533356 3255.593506,335.322144 3121.961182,335.429657
	C3114.675049,335.435516 3107.285645,336.006744 3100.122803,337.302307
	C3072.745605,342.254181 3050.031738,356.356781 3029.214844,374.128418
	C2990.948730,406.796387 2952.852783,439.671783 2914.161621,471.830292
	C2887.847656,493.701416 2872.039795,521.361572 2865.788574,554.532471
	C2858.145752,595.085693 2851.215576,635.773621 2844.037354,676.413879
	C2833.038086,738.689697 2822.031006,800.964172 2811.150391,863.260681
	C2806.970703,887.191101 2802.262695,911.076233 2799.362793,935.170593
	C2796.055176,962.651611 2801.670166,988.172668 2821.010742,1009.461304
	C2827.052979,1016.112122 2832.495117,1023.307495 2838.217041,1030.249512
	C2859.832764,1056.474976 2881.410156,1082.732422 2903.081543,1108.911865
	C2918.287109,1127.280151 2937.340576,1139.679199 2961.102051,1143.115479
	C2972.890869,1144.820435 2985.024170,1144.146240 2999.000732,1144.548462
M820.312500,1139.704712
	C832.448181,1135.729126 843.632385,1129.856934 853.770325,1122.155518
	C862.784119,1115.308105 871.902527,1108.502319 880.232727,1100.868408
	C908.481750,1074.980835 936.380127,1048.710938 964.489807,1022.670532
	C966.682129,1020.639526 968.297607,1017.427185 972.902466,1017.184326
	C965.460205,1059.681519 958.130981,1101.533203 950.687012,1144.040039
	C1023.841980,1144.040039 1096.006226,1144.040039 1168.058105,1144.040039
	C1171.287354,1130.853638 1311.154297,344.291168 1309.854004,336.077393
	C1237.709595,336.077393 1165.581299,336.077393 1093.052734,336.077393
	C1089.223145,357.985443 1085.723389,379.300354 1081.723633,400.520966
	C1077.790771,421.386139 1075.076416,442.515533 1069.712769,464.928162
	C1051.197876,439.067047 1034.267944,414.760468 1016.592834,391.008270
	C1007.670349,379.018036 997.828308,367.630707 987.623047,356.697906
	C976.057190,344.307556 961.158508,337.847046 944.327881,336.189026
	C937.709045,335.536957 931.019104,335.386536 924.361389,335.381958
	C847.711182,335.329102 771.059204,335.649139 694.411499,335.207001
	C661.621765,335.017883 632.662415,344.869659 607.770325,365.694824
	C563.047485,403.110840 518.618225,440.885620 474.484924,478.995270
	C451.377350,498.948975 436.359161,524.235474 430.332550,554.344604
	C426.479431,573.594849 423.438049,593.007324 420.022888,612.345398
	C410.298218,667.410706 400.555237,722.472778 390.844757,777.540527
	C382.058319,827.367798 372.826721,877.123230 364.720581,927.061157
	C360.021423,956.010132 366.713562,982.485535 385.955322,1005.505432
	C414.589752,1039.762329 442.716492,1074.443359 471.258698,1108.778076
	C475.910278,1114.373657 481.190277,1119.612549 486.865143,1124.161499
	C505.622162,1139.197021 527.555725,1144.599731 551.230164,1144.576416
	C627.880310,1144.500854 704.530640,1144.569092 781.180847,1144.525757
	C793.859253,1144.518677 806.493835,1143.862549 820.312500,1139.704712
M957.534058,180.533249
	C945.757751,192.310379 933.997742,204.103897 922.196960,215.856415
	C917.593506,220.441040 914.253906,225.570953 913.638733,232.284363
	C912.127869,248.772156 923.660278,262.189453 940.561157,262.858704
	C952.866150,263.345947 965.195496,263.327820 977.514160,263.341003
	C1086.100708,263.457367 1194.687378,263.535034 1303.273926,263.586670
	C1305.834961,263.587891 1308.396240,263.152557 1311.157959,262.902740
	C1319.576538,222.140808 1327.874756,181.962265 1336.357178,140.891418
	C1331.144653,140.891418 1327.507690,140.891418 1323.870728,140.891418
	C1241.929565,140.891418 1159.988525,140.891418 1078.047363,140.891418
	C1061.059570,140.891434 1044.066406,141.156693 1027.085205,140.822876
	C1006.951721,140.427094 989.966309,147.016418 976.163513,161.835052
	C970.491333,167.924744 964.422546,173.644974 957.534058,180.533249
M3466.125244,1425.355835
	C3472.707520,1383.812744 3479.754639,1342.337769 3485.926758,1300.282715
	C3478.917236,1300.282715 3473.409424,1300.282715 3467.325684,1300.282715
	C3464.818604,1315.075317 3462.393311,1329.384155 3459.907959,1344.048584
	C3457.370850,1343.933228 3455.771973,1343.895020 3454.178467,1343.782471
	C3445.898926,1343.197510 3437.579346,1341.754639 3429.350098,1342.158813
	C3407.735107,1343.220825 3391.369385,1353.133179 3381.365479,1372.795166
	C3373.324707,1388.598389 3372.004639,1405.448853 3374.578125,1422.493042
	C3377.161865,1439.604126 3389.290039,1451.317139 3405.393066,1453.632080
	C3416.998291,1455.300415 3427.955811,1453.244995 3437.834229,1446.596680
	C3440.248779,1444.971558 3442.646973,1443.322021 3445.029297,1441.699707
	C3454.317627,1454.020020 3462.294678,1456.054565 3477.982910,1449.988892
	C3478.577148,1445.940674 3479.222168,1441.547729 3479.912598,1436.845703
	C3466.516357,1438.260864 3466.049316,1437.895264 3466.125244,1425.355835
M3186.341553,1447.608398
	C3189.278076,1445.623413 3192.214600,1443.638428 3195.107422,1441.683228
	C3204.180176,1453.999512 3212.715332,1456.126953 3228.020996,1449.869141
	C3228.596680,1445.859863 3229.221436,1441.506470 3229.910645,1436.706665
	C3227.494385,1437.033569 3226.517090,1437.225464 3225.531494,1437.290039
	C3217.049072,1437.846436 3215.354492,1436.219727 3215.866211,1428.005737
	C3215.948730,1426.678955 3216.086670,1425.349854 3216.298828,1424.037842
	C3221.281006,1393.191040 3226.301758,1362.350342 3231.256104,1331.499146
	C3232.878418,1321.399902 3234.335693,1311.274170 3235.989014,1300.362793
	C3229.356201,1300.362793 3223.600342,1300.362793 3217.297852,1300.362793
	C3214.799805,1315.141846 3212.384033,1329.432983 3209.912109,1344.057617
	C3207.340576,1343.935059 3205.741455,1343.890259 3204.147461,1343.777588
	C3195.880615,1343.193359 3187.574463,1341.754883 3179.357666,1342.158569
	C3157.784668,1343.218506 3141.432373,1353.089355 3131.410889,1372.705200
	C3123.353760,1388.474976 3122.028564,1405.296509 3124.541748,1422.316895
	C3127.112549,1439.728882 3139.732666,1451.722900 3156.127930,1453.746338
	C3166.273193,1454.998413 3176.038330,1453.574829 3186.341553,1447.608398
M2498.064453,1538.306641
	C2489.576904,1541.697998 2481.089600,1545.089233 2472.653809,1548.459839
	C2472.142334,1546.278320 2471.561768,1543.801636 2470.981445,1541.325684
	C2465.811768,1541.325684 2461.257324,1541.325684 2455.843506,1541.325684
	C2448.218262,1589.188599 2440.206543,1636.566406 2433.260010,1684.835815
	C2440.309082,1684.835815 2445.771973,1684.835815 2451.702148,1684.835815
	C2453.931885,1672.276367 2456.060059,1660.288940 2458.123779,1648.665039
	C2468.878418,1649.148315 2478.501709,1650.308960 2488.050781,1649.865479
	C2511.411621,1648.781006 2528.437500,1637.671143 2537.937256,1615.940674
	C2544.109863,1601.820923 2545.511963,1586.911499 2543.653809,1571.839478
	C2541.460693,1554.047241 2529.939941,1541.508423 2513.730225,1538.615845
	C2509.196533,1537.806885 2504.440674,1538.242432 2498.064453,1538.306641
M3251.610107,1428.890747
	C3263.835205,1456.854614 3287.265381,1461.563354 3320.698486,1442.775513
	C3328.243408,1452.526245 3335.729248,1455.008545 3347.549561,1452.309448
	C3351.447510,1451.419434 3353.469971,1449.516602 3353.686523,1445.704590
	C3353.847168,1442.876709 3353.717773,1440.032349 3353.717773,1437.151123
	C3340.792969,1438.024780 3339.248047,1436.363647 3341.154053,1424.714355
	C3343.303711,1411.573364 3345.428711,1398.427979 3347.494141,1385.273438
	C3349.543457,1372.222778 3351.505127,1359.158203 3353.621826,1345.337646
	C3349.742188,1345.126465 3346.663330,1344.317505 3343.947998,1344.985229
	C3341.026855,1345.703491 3338.446777,1347.807007 3335.707031,1349.312012
	C3299.829834,1330.736084 3261.272461,1347.809570 3250.988037,1386.968750
	C3247.460693,1400.400513 3246.892334,1413.932373 3251.610107,1428.890747
M2803.826172,1420.659058
	C2807.739014,1395.796143 2811.651855,1370.933228 2815.611084,1345.775146
	C2808.301758,1344.042358 2802.354004,1343.617798 2798.333984,1349.748291
	C2774.962158,1335.283081 2739.022705,1340.441406 2722.326172,1366.173218
	C2710.479736,1384.430298 2707.216797,1404.490723 2712.576416,1425.522705
	C2716.421143,1440.609253 2726.043945,1450.840454 2741.835449,1453.508911
	C2754.002197,1455.564697 2765.724854,1453.492554 2776.262451,1446.517090
	C2778.398193,1445.103394 2780.605469,1443.797729 2782.750732,1442.460205
	C2784.468750,1444.765259 2785.600342,1446.903687 2787.284180,1448.434448
	C2794.326904,1454.837036 2802.732910,1453.877930 2810.907715,1451.836792
	C2817.577637,1450.171143 2815.488525,1443.958862 2816.117188,1439.307861
	C2816.190674,1438.764160 2815.638184,1438.135986 2815.374512,1437.545654
	C2814.764648,1437.405518 2814.147705,1437.118774 2813.545654,1437.146851
	C2802.813477,1437.645874 2801.361572,1436.021606 2803.031738,1425.276001
	C2803.185059,1424.290039 2803.425781,1423.317627 2803.826172,1420.659058
M2979.566895,1648.187744
	C2996.504150,1652.952637 3011.676025,1648.990479 3025.256836,1638.442017
	C3034.470215,1649.964355 3042.279785,1651.818237 3057.699463,1646.097168
	C3058.368652,1642.035278 3059.091553,1637.649536 3059.865967,1632.950439
	C3046.088135,1634.258301 3044.559082,1632.670166 3046.150391,1620.205078
	C3046.192627,1619.874634 3046.226074,1619.542725 3046.279053,1619.213989
	C3049.885742,1596.869019 3053.526367,1574.529419 3057.068115,1552.174194
	C3057.612793,1548.735718 3057.703125,1545.225342 3057.986084,1541.949463
	C3050.692383,1539.647217 3045.243896,1540.376953 3041.298584,1545.697266
	C3015.395752,1529.488525 2970.525635,1536.593750 2957.062500,1579.060791
	C2953.146484,1591.413208 2952.516357,1604.051270 2954.481201,1616.613892
	C2956.713867,1630.888794 2963.870850,1642.142578 2979.566895,1648.187744
M3552.275635,1409.176270
	C3560.028809,1407.475464 3568.193604,1406.791138 3575.447510,1403.856445
	C3589.397461,1398.212891 3595.551514,1385.532959 3594.084717,1368.678223
	C3592.957520,1355.725708 3584.392334,1346.701294 3569.820312,1343.113037
	C3548.192383,1337.787109 3523.687500,1346.936890 3510.804443,1365.486572
	C3500.719971,1380.006470 3496.756592,1396.341553 3498.635498,1413.812134
	C3501.009033,1435.883301 3513.447998,1449.395630 3534.753418,1453.210693
	C3545.658203,1455.163574 3556.640625,1454.446289 3567.395752,1451.499634
	C3578.692139,1448.404785 3581.111816,1444.138916 3578.329102,1431.553711
	C3574.508789,1432.681763 3570.740479,1433.875610 3566.927490,1434.904175
	C3557.192383,1437.530396 3547.437500,1439.133301 3537.453857,1435.944702
	C3524.663574,1431.859619 3517.671631,1420.948242 3519.038086,1406.830811
	C3529.526367,1407.630371 3540.016602,1408.430176 3552.275635,1409.176270
M2369.533447,1545.257690
	C2345.704834,1530.891113 2313.293945,1537.974243 2296.880615,1561.389893
	C2286.724854,1575.878418 2282.765625,1592.238403 2284.626465,1609.720703
	C2287.084229,1632.808838 2301.250977,1647.631592 2323.662109,1649.496826
	C2333.438965,1650.310669 2343.614990,1649.114136 2353.319824,1647.289551
	C2364.829590,1645.125488 2367.085205,1640.217651 2364.349121,1627.546997
	C2360.528564,1628.675049 2356.755615,1629.869263 2352.938965,1630.900269
	C2343.198242,1633.531372 2333.437256,1635.134766 2323.447998,1631.942993
	C2310.636475,1627.849487 2303.635742,1616.899658 2305.117188,1602.238403
	C2307.331055,1602.550659 2309.532227,1602.815430 2311.717773,1603.176880
	C2326.621582,1605.642090 2341.537109,1606.701904 2356.208984,1602.068359
	C2381.396240,1594.113770 2388.714111,1565.642822 2369.533447,1545.257690
M2560.205811,1613.835693
	C2565.768311,1635.761597 2577.238281,1647.127197 2597.895752,1649.456543
	C2606.044189,1650.375366 2614.599854,1649.869995 2622.709473,1648.486816
	C2639.040771,1645.701294 2638.977051,1645.270874 2641.094971,1629.279053
	C2641.165039,1628.749878 2640.597900,1628.136230 2640.137207,1627.156616
	C2636.111328,1628.416870 2632.055664,1629.805298 2627.933105,1630.953369
	C2618.183105,1633.668701 2608.384033,1635.055908 2598.399902,1631.951660
	C2585.632324,1627.981934 2578.435303,1616.334473 2580.618652,1602.368652
	C2587.444824,1603.221069 2594.279053,1604.318237 2601.157471,1604.879028
	C2612.887695,1605.835449 2624.506348,1605.130859 2635.501465,1600.436646
	C2649.544922,1594.440918 2657.013428,1581.242310 2655.413574,1565.704712
	C2653.933350,1551.330566 2644.434082,1541.111450 2628.852539,1538.676514
	C2603.033691,1534.641479 2580.788574,1545.312622 2568.492676,1566.644165
	C2560.325439,1580.812988 2558.590820,1596.134766 2560.205811,1613.835693
M2476.943604,1360.395264
	C2472.224854,1353.712402 2466.198486,1348.698730 2458.568848,1345.577759
	C2435.614990,1336.188965 2406.823486,1344.038330 2392.325928,1364.089600
	C2379.873047,1381.312866 2377.184326,1400.802612 2381.265137,1421.151367
	C2384.058105,1435.078125 2392.675781,1444.982666 2405.928711,1450.462402
	C2427.047607,1459.194214 2453.974365,1452.777710 2468.950928,1435.573242
	C2485.790771,1416.228271 2489.567627,1384.526978 2476.943604,1360.395264
M2607.449219,1448.297852
	C2607.947998,1444.545044 2608.446533,1440.792114 2608.980713,1436.771729
	C2595.015625,1438.442871 2593.654785,1437.030640 2595.618652,1424.309814
	C2596.887939,1416.088501 2598.462646,1407.905762 2599.451172,1399.651855
	C2600.555908,1390.424316 2602.023438,1381.113037 2601.781982,1371.878662
	C2601.333740,1354.724976 2589.822754,1343.445801 2572.801025,1342.073853
	C2560.075195,1341.048218 2548.330078,1343.698486 2537.875000,1351.324951
	C2536.125244,1352.601318 2534.123535,1353.532104 2531.834717,1354.855957
	C2530.360840,1351.139771 2529.196045,1348.202637 2528.076660,1345.379883
	C2523.961914,1345.379883 2520.409668,1345.379883 2516.061768,1345.379883
	C2510.500977,1380.523804 2505.014404,1415.197388 2499.401855,1450.667725
	C2506.342773,1450.667725 2511.844482,1450.667725 2518.000732,1450.667725
	C2518.726318,1447.083496 2519.478516,1443.900024 2520.005615,1440.679443
	C2523.121338,1421.632690 2526.812012,1402.649048 2529.002441,1383.494629
	C2530.103516,1373.868896 2534.978760,1368.259521 2542.672119,1364.314941
	C2547.349854,1361.916504 2552.429199,1359.883057 2557.562256,1358.867798
	C2572.627441,1355.887695 2582.531494,1364.095703 2582.058594,1379.408081
	C2581.792725,1388.017090 2580.139404,1396.584839 2579.078369,1405.167358
	C2577.853516,1415.074463 2576.188232,1424.947754 2575.465820,1434.890381
	C2574.800049,1444.052612 2578.101807,1449.616333 2584.872314,1451.753174
	C2592.352539,1454.114136 2599.845459,1454.181152 2607.449219,1448.297852
M2657.706543,1392.789551
	C2659.325684,1382.690430 2660.944824,1372.591309 2662.741943,1361.381836
	C2676.638184,1361.381836 2689.791260,1361.381836 2703.204102,1361.381836
	C2704.205811,1355.386963 2705.006348,1350.596069 2706.067871,1344.244629
	C2691.989258,1344.244629 2679.210938,1344.244629 2665.954346,1344.244629
	C2666.916260,1335.343872 2667.724854,1327.864868 2668.522217,1320.486206
	C2655.687500,1317.968506 2655.703369,1317.974243 2651.792236,1328.947876
	C2650.020508,1333.917847 2648.170410,1338.859741 2646.357178,1343.811401
	C2640.166748,1344.333496 2634.683350,1344.796021 2628.926758,1345.281616
	C2628.053467,1350.977051 2627.328613,1355.704956 2626.521484,1360.968384
	C2632.588623,1361.458618 2637.350586,1361.843506 2642.878418,1362.290161
	C2641.415771,1372.151367 2640.090576,1380.667236 2638.901367,1389.201904
	C2637.295654,1400.722290 2634.835938,1412.227173 2634.473633,1423.792969
	C2633.927979,1441.208984 2643.321289,1451.337646 2660.638428,1452.835327
	C2667.483154,1453.427246 2674.631592,1452.625244 2681.417236,1451.303955
	C2692.366699,1449.171997 2694.671875,1444.655518 2692.233887,1433.278198
	C2685.666748,1434.302490 2679.146240,1435.932373 2672.567383,1436.219971
	C2658.151123,1436.850220 2652.882324,1431.420288 2654.002930,1417.196289
	C2654.601807,1409.593140 2656.255371,1402.072876 2657.706543,1392.789551
M2312.116455,1428.890137
	C2299.922607,1414.078979 2301.790283,1397.853516 2308.281738,1381.763916
	C2313.047363,1369.952759 2322.514893,1362.915283 2335.011475,1359.753052
	C2344.745605,1357.289795 2354.165039,1358.399292 2363.644775,1360.747070
	C2365.773438,1361.274414 2367.966064,1361.545654 2370.516113,1362.004517
	C2371.125244,1359.100464 2371.707031,1356.877930 2372.034668,1354.618530
	C2372.406494,1352.052979 2372.550781,1349.454590 2372.772217,1347.101562
	C2362.668701,1342.197754 2354.890869,1341.053589 2340.144531,1342.104736
	C2314.255127,1343.950073 2293.819092,1360.116333 2287.295654,1385.191528
	C2285.068359,1393.753418 2284.115723,1403.014526 2284.604004,1411.844238
	C2285.900146,1435.292969 2299.417725,1450.128906 2321.742432,1453.391113
	C2328.261230,1454.343628 2335.108398,1454.279297 2341.664062,1453.496826
	C2356.031494,1451.781982 2357.937988,1449.438843 2359.484131,1434.834106
	C2359.542480,1434.283813 2358.974609,1433.667236 2358.534668,1432.733765
	C2343.101807,1438.217896 2327.644043,1441.363159 2312.116455,1428.890137
M2889.842529,1545.440186
	C2889.754395,1541.395020 2886.496094,1540.512329 2883.674561,1540.211426
	C2874.795898,1539.264160 2865.810059,1537.793579 2856.968994,1538.306274
	C2830.708008,1539.829346 2810.053223,1556.603882 2804.162354,1582.212158
	C2801.757812,1592.664551 2801.416748,1604.105713 2802.729004,1614.778442
	C2804.696533,1630.783325 2814.145996,1642.247559 2829.948975,1647.314819
	C2840.908447,1650.829102 2852.152100,1651.228638 2863.404785,1648.469849
	C2875.370850,1645.536377 2876.681396,1643.468750 2875.119385,1629.586304
	C2869.674316,1630.829834 2864.314697,1632.343384 2858.854492,1633.246826
	C2842.059326,1636.025146 2827.105225,1628.015259 2822.454346,1613.999146
	C2811.060791,1579.662231 2837.885010,1548.685303 2873.364258,1555.236572
	C2877.838135,1556.062744 2882.275146,1557.088623 2887.307129,1558.143188
	C2888.197754,1554.083862 2888.967529,1550.575562 2889.842529,1545.440186
M3016.568115,1401.559448
	C3015.195557,1410.429199 3013.584961,1419.270020 3012.500732,1428.174927
	C3010.343750,1445.898315 3019.014404,1454.685425 3036.796631,1453.129150
	C3037.788574,1453.042480 3038.769043,1452.831909 3039.755371,1452.680542
	C3051.124512,1450.937500 3052.383301,1449.177246 3051.094727,1436.341797
	C3049.865479,1436.401611 3048.592041,1436.330688 3047.367676,1436.543701
	C3033.510498,1438.952759 3030.210938,1435.934814 3032.388672,1422.118408
	C3037.874023,1387.313110 3043.550293,1352.537964 3049.103027,1317.743286
	C3050.068604,1311.693359 3050.804199,1305.606812 3051.719482,1299.008179
	C3047.757324,1298.776123 3045.145996,1298.473145 3042.539307,1298.510620
	C3039.630859,1298.552246 3036.727051,1298.903198 3032.978271,1299.182373
	C3027.581543,1333.033936 3022.255859,1366.439209 3016.568115,1401.559448
M2688.399414,1627.610107
	C2690.926758,1612.176880 2693.296631,1596.714844 2696.094238,1581.330811
	C2696.778564,1577.567505 2698.068604,1573.393188 2700.447998,1570.554199
	C2708.507080,1560.938110 2718.708984,1555.197021 2731.790283,1555.966064
	C2734.344727,1556.116333 2736.915527,1555.987793 2739.990723,1555.987793
	C2740.812256,1550.031006 2741.524414,1544.867065 2742.278809,1539.397705
	C2725.381348,1534.606323 2712.852295,1542.624756 2700.303711,1551.531494
	C2699.780029,1547.587769 2699.396484,1544.701294 2698.997803,1541.700195
	C2693.485107,1541.700195 2688.414307,1541.700195 2682.989014,1541.700195
	C2677.403809,1576.989868 2671.957764,1611.400757 2666.395020,1646.549561
	C2673.193604,1646.549561 2678.977295,1646.549561 2685.297852,1646.549561
	C2686.321777,1640.401245 2687.245117,1634.857178 2688.399414,1627.610107
M2966.001709,1451.506958
	C2968.593750,1452.068970 2971.161377,1452.930786 2973.781738,1453.142212
	C2986.629150,1454.179443 2989.289307,1451.900879 2990.728516,1438.933838
	C2990.790039,1438.379150 2990.303467,1437.763672 2990.064453,1437.156738
	C2989.447754,1437.059326 2988.808594,1436.821655 2988.198975,1436.882446
	C2977.298096,1437.969971 2975.653564,1436.326294 2977.310791,1425.821777
	C2979.328369,1413.032227 2981.408203,1400.252319 2983.412354,1387.460693
	C2985.560059,1373.752563 2987.651123,1360.035522 2989.897217,1345.476562
	C2983.266602,1345.476562 2977.530029,1345.476562 2971.072021,1345.476562
	C2968.993164,1358.402222 2966.938232,1370.781006 2965.023682,1383.181641
	C2962.490967,1399.584717 2959.924316,1415.984985 2957.664795,1432.426758
	C2956.676270,1439.621582 2957.571777,1446.469971 2966.001709,1451.506958
M2921.669434,1631.033813
	C2921.505859,1628.145020 2920.831299,1625.178345 2921.258789,1622.379761
	C2925.019531,1597.764404 2928.990723,1573.181274 2932.848877,1548.580566
	C2933.191650,1546.397217 2933.174316,1544.157349 2933.348633,1541.587158
	C2926.952881,1541.587158 2921.196045,1541.587158 2915.457031,1541.587158
	C2914.881348,1543.636719 2914.397705,1544.876221 2914.192871,1546.160278
	C2910.847656,1567.143677 2907.459229,1588.120850 2904.259766,1609.126587
	C2903.061523,1616.993652 2901.660889,1624.919800 2901.532715,1632.837891
	C2901.361572,1643.429810 2907.448486,1648.734009 2918.677246,1649.221558
	C2931.149902,1649.763062 2933.224121,1647.944702 2934.731689,1635.029541
	C2934.797607,1634.467773 2934.343506,1633.845459 2934.308838,1633.748291
	C2930.276611,1633.180176 2926.510010,1632.649536 2921.669434,1631.033813
M2773.624512,1588.605225
	C2775.202881,1572.967651 2779.733887,1557.664185 2780.047119,1541.523682
	C2773.477539,1541.523682 2768.044189,1541.523682 2762.403320,1541.523682
	C2761.661621,1544.787231 2760.925293,1547.331299 2760.519043,1549.927002
	C2757.594238,1568.613159 2754.725342,1587.307861 2751.863281,1606.003662
	C2750.608643,1614.199829 2748.835693,1622.369385 2748.325439,1630.614624
	C2747.598145,1642.363770 2753.758301,1648.819580 2765.428223,1649.089600
	C2769.957031,1649.194336 2774.513916,1648.073730 2779.612549,1647.442627
	C2780.498047,1642.408813 2781.270996,1638.013672 2782.025879,1633.722046
	C2780.512695,1633.285522 2779.916260,1632.933960 2779.348877,1632.976196
	C2768.482666,1633.784668 2766.742188,1632.213867 2768.214355,1621.765381
	C2769.694824,1611.254761 2771.601318,1600.804443 2773.624512,1588.605225
M3098.732666,1371.948730
	C3099.684326,1363.239258 3102.985840,1354.728027 3101.577881,1345.516235
	C3095.491943,1345.516235 3090.056885,1345.516235 3084.418457,1345.516235
	C3083.673096,1348.771851 3082.928711,1351.314087 3082.522461,1353.909424
	C3079.596436,1372.595337 3076.738525,1391.291992 3073.861084,1409.985474
	C3072.649658,1417.854370 3070.949951,1425.686401 3070.345459,1433.601807
	C3069.344727,1446.705566 3076.242432,1453.599976 3089.398438,1453.143066
	C3093.293213,1453.007812 3097.157715,1451.993774 3101.630859,1451.288696
	C3102.492188,1446.421875 3103.270020,1442.027344 3104.081543,1437.441895
	C3089.786377,1437.868530 3088.362793,1436.201538 3090.604736,1422.819946
	C3090.714355,1422.165649 3090.909424,1421.525269 3091.012451,1420.870239
	C3093.484619,1405.136475 3095.949463,1389.401611 3098.732666,1371.948730
M2784.251221,1511.208618
	C2790.987305,1506.498047 2797.723389,1501.787476 2805.249268,1496.524536
	C2801.380859,1491.146362 2798.026123,1486.482178 2794.101562,1481.025757
	C2779.263916,1492.999634 2765.257324,1504.302979 2750.856689,1515.924194
	C2754.444580,1520.649780 2757.141113,1524.201416 2760.017822,1527.990234
	C2768.375244,1522.201416 2775.721924,1517.112671 2784.251221,1511.208618
M3099.452637,1294.986206
	C3096.750488,1296.111450 3093.651367,1296.726807 3091.424805,1298.462158
	C3085.831055,1302.822021 3084.659912,1311.901367 3088.518799,1317.242798
	C3092.066650,1322.153931 3099.553467,1323.608521 3105.513672,1320.545044
	C3110.745117,1317.855957 3113.776123,1311.836670 3113.048096,1305.580566
	C3112.327393,1299.389404 3109.616943,1297.001221 3099.452637,1294.986206
M2917.678955,1505.230713
	C2918.904297,1514.642700 2921.892578,1517.860107 2929.546875,1518.007690
	C2936.948486,1518.150513 2942.368652,1513.816528 2943.764404,1506.639038
	C2945.233154,1499.084106 2942.287598,1493.440552 2935.867676,1491.509399
	C2928.842773,1489.396362 2922.283936,1492.469727 2918.639648,1499.722046
	C2918.062256,1500.871338 2918.020508,1502.289795 2917.678955,1505.230713
M2982.863525,1295.801025
	C2980.569580,1297.590454 2977.751953,1298.994507 2976.091309,1301.250244
	C2972.713379,1305.838745 2972.672363,1311.248047 2975.017822,1316.259155
	C2977.012451,1320.520874 2981.077393,1322.003296 2985.710938,1322.021118
	C2994.464355,1322.054810 3000.285156,1315.875122 3000.015869,1306.735352
	C2999.764404,1298.199463 2995.239258,1294.931152 2982.863525,1295.801025
z" />
	<path fill="#FEFEFE" opacity="1.000000" stroke="none" d="
M2031.091553,1427.099609
	C2020.555298,1435.867310 2010.793945,1444.475830 2000.507935,1452.403564
	C1976.445557,1470.949341 1949.040161,1479.647461 1918.667603,1479.635132
	C1753.335938,1479.567505 1588.004272,1479.603027 1422.672607,1479.603027
	C1419.387329,1479.603027 1416.102173,1479.603027 1411.306152,1479.603027
	C1422.779907,1412.214600 1434.761597,1345.914307 1446.618530,1278.547607
	C1532.517334,1278.547607 1618.105957,1278.547607 1703.694580,1278.547607
	C1789.280762,1278.547607 1874.866821,1278.547607 1961.020630,1278.547607
	C1976.474365,1190.888550 1991.771973,1104.115723 2007.425171,1015.325012
	C2004.002808,1018.060181 2002.018311,1019.439636 2000.271484,1021.073425
	C1976.173950,1043.610229 1952.391724,1066.494385 1927.927856,1088.625366
	C1913.869507,1101.343140 1899.133179,1113.407593 1883.952515,1124.764282
	C1866.411743,1137.886353 1846.163940,1144.209595 1824.176514,1144.268677
	C1766.179565,1144.424194 1708.182129,1144.500854 1650.184937,1144.534912
	C1625.853882,1144.549194 1601.508667,1144.864868 1577.195435,1144.162598
	C1547.993774,1143.319336 1523.834229,1131.432129 1505.164185,1108.714111
	C1476.809937,1074.211792 1448.499512,1039.672363 1419.971680,1005.313843
	C1400.348633,981.679932 1394.028320,954.661682 1399.235352,924.860779
	C1415.853394,829.754456 1432.720337,734.691711 1449.486450,639.611267
	C1454.111694,613.382446 1459.022339,587.199524 1463.263306,560.908569
	C1468.944580,525.689331 1486.454834,497.539917 1513.290649,474.705841
	C1534.358765,456.779358 1555.436890,438.864471 1576.516724,420.951813
	C1596.834595,403.686615 1617.187988,386.463287 1637.476196,369.163452
	C1664.412109,346.195099 1695.145020,334.816711 1730.941772,335.140259
	C1806.268311,335.821106 1881.605103,335.332764 1956.937744,335.373291
	C1963.265503,335.376678 1969.606323,335.555573 1975.918213,335.987427
	C1992.409424,337.115845 2007.504517,342.453400 2019.104614,354.343292
	C2030.234741,365.751282 2040.786865,377.870850 2050.394775,390.583282
	C2066.461426,411.841797 2081.568604,433.825348 2097.096924,455.491364
	C2099.012207,458.163574 2101.032715,460.760468 2104.359619,465.201263
	C2112.205566,420.978973 2119.721191,378.619781 2127.305908,335.870544
	C2200.108643,335.870544 2272.285645,335.870544 2345.406006,335.870544
	C2342.622070,352.034485 2339.982910,367.657318 2337.234863,383.260925
	C2326.146973,446.211884 2315.024902,509.156738 2303.917236,572.104187
	C2292.288818,638.002075 2280.656982,703.899353 2269.036865,769.798645
	C2257.994873,832.420532 2246.983887,895.047913 2235.925293,957.666870
	C2225.562256,1016.347473 2215.141846,1075.017822 2204.770752,1133.697021
	C2197.875732,1172.709961 2190.442139,1211.639771 2184.322754,1250.774536
	C2178.700439,1286.729614 2162.011230,1315.863892 2134.475586,1339.212036
	C2100.158203,1368.310669 2065.907471,1397.487793 2031.091553,1427.099609
M1758.999146,948.912781
	C1845.282959,948.716370 1931.566650,948.520447 2017.850464,948.299683
	C2018.112427,948.299011 2018.385742,947.951782 2018.631470,947.740479
	C2018.883423,947.523621 2019.108032,947.274902 2019.522949,946.863098
	C2043.897705,808.571960 2068.307617,670.081909 2092.775146,531.265381
	C1956.512329,531.265381 1821.731812,531.265381 1686.742798,531.265381
	C1662.422241,669.249634 1638.216919,806.574524 1614.033447,943.903320
	C1613.863159,944.870544 1613.963257,945.892151 1614.004150,946.885559
	C1614.015747,947.167664 1614.228027,947.468933 1614.415283,947.709167
	C1614.617188,947.968201 1614.897705,948.166077 1615.716431,948.912842
	C1662.427734,948.912842 1709.713379,948.912842 1758.999146,948.912781
z" />
	<path fill="#FEFEFE" opacity="1.000000" stroke="none" d="
M2998.000977,1144.548340
	C2985.024170,1144.146240 2972.890869,1144.820435 2961.102051,1143.115479
	C2937.340576,1139.679199 2918.287109,1127.280151 2903.081543,1108.911865
	C2881.410156,1082.732422 2859.832764,1056.474976 2838.217041,1030.249512
	C2832.495117,1023.307495 2827.052979,1016.112122 2821.010742,1009.461304
	C2801.670166,988.172668 2796.055176,962.651611 2799.362793,935.170593
	C2802.262695,911.076233 2806.970703,887.191101 2811.150391,863.260681
	C2822.031006,800.964172 2833.038086,738.689697 2844.037354,676.413879
	C2851.215576,635.773621 2858.145752,595.085693 2865.788574,554.532471
	C2872.039795,521.361572 2887.847656,493.701416 2914.161621,471.830292
	C2952.852783,439.671783 2990.948730,406.796387 3029.214844,374.128418
	C3050.031738,356.356781 3072.745605,342.254181 3100.122803,337.302307
	C3107.285645,336.006744 3114.675049,335.435516 3121.961182,335.429657
	C3255.593506,335.322144 3389.226074,335.533356 3522.857666,335.224487
	C3556.521240,335.146698 3583.322998,347.292450 3604.406006,373.794952
	C3630.538330,406.644104 3657.231201,439.071381 3684.467041,471.011658
	C3706.670166,497.049866 3713.372070,526.292114 3707.446533,559.472961
	C3691.355225,649.576599 3675.593994,739.739197 3659.700195,829.878174
	C3654.324951,860.361877 3648.903076,890.837463 3643.578613,921.329956
	C3637.643799,955.317688 3620.451172,982.582947 3594.339355,1004.667603
	C3565.591064,1028.981934 3536.958984,1053.433960 3508.275879,1077.825195
	C3495.583740,1088.617798 3482.899902,1099.419800 3470.194824,1110.196777
	C3450.262451,1127.104126 3427.994629,1139.347778 3401.805176,1143.011963
	C3392.612549,1144.298218 3383.209717,1144.480835 3373.902344,1144.487549
	C3248.935059,1144.578247 3123.968018,1144.548340 2998.000977,1144.548340
M3360.690918,478.230865
	C3358.618652,479.904785 3356.488770,481.512299 3354.482666,483.262207
	C3238.691650,584.260925 3122.908691,685.268982 3007.147461,786.302002
	C3005.024414,788.154968 3003.172852,790.318909 2999.565186,794.001038
	C3005.270508,794.001038 3008.800537,794.000854 3012.330566,794.001038
	C3054.328369,794.002991 3096.326904,793.836426 3138.323486,794.072083
	C3162.466064,794.207520 3180.511230,814.485107 3177.814453,838.231873
	C3177.223389,843.435791 3175.315674,848.575012 3173.461914,853.537598
	C3153.878174,905.963013 3134.156494,958.337097 3114.589844,1010.768799
	C3113.579590,1013.475830 3111.145508,1016.279175 3112.975830,1019.843689
	C3127.720947,1010.293335 3483.613525,710.343506 3487.596924,703.978394
	C3469.655273,703.978394 3452.009033,703.979797 3434.362793,703.978088
	C3402.697998,703.975037 3371.031982,704.119873 3339.368652,703.908203
	C3321.171631,703.786621 3306.182861,692.622437 3301.077637,675.710449
	C3298.079346,665.777283 3299.487061,656.084167 3303.010498,646.366028
	C3322.085938,593.754639 3340.972412,541.074646 3359.810791,488.377838
	C3360.997803,485.057220 3361.226562,481.394012 3362.626465,478.115631
	C3362.432129,478.095947 3362.238037,478.076263 3360.690918,478.230865
z" />
	<path fill="#FEFEFE" opacity="1.000000" stroke="none" d="
M819.525391,1139.885742
	C806.493835,1143.862549 793.859253,1144.518677 781.180847,1144.525757
	C704.530640,1144.569092 627.880310,1144.500854 551.230164,1144.576416
	C527.555725,1144.599731 505.622162,1139.197021 486.865143,1124.161499
	C481.190277,1119.612549 475.910278,1114.373657 471.258698,1108.778076
	C442.716492,1074.443359 414.589752,1039.762329 385.955322,1005.505432
	C366.713562,982.485535 360.021423,956.010132 364.720581,927.061157
	C372.826721,877.123230 382.058319,827.367798 390.844757,777.540527
	C400.555237,722.472778 410.298218,667.410706 420.022888,612.345398
	C423.438049,593.007324 426.479431,573.594849 430.332550,554.344604
	C436.359161,524.235474 451.377350,498.948975 474.484924,478.995270
	C518.618225,440.885620 563.047485,403.110840 607.770325,365.694824
	C632.662415,344.869659 661.621765,335.017883 694.411499,335.207001
	C771.059204,335.649139 847.711182,335.329102 924.361389,335.381958
	C931.019104,335.386536 937.709045,335.536957 944.327881,336.189026
	C961.158508,337.847046 976.057190,344.307556 987.623047,356.697906
	C997.828308,367.630707 1007.670349,379.018036 1016.592834,391.008270
	C1034.267944,414.760468 1051.197876,439.067047 1069.712769,464.928162
	C1075.076416,442.515533 1077.790771,421.386139 1081.723633,400.520966
	C1085.723389,379.300354 1089.223145,357.985443 1093.052734,336.077393
	C1165.581299,336.077393 1237.709595,336.077393 1309.854004,336.077393
	C1311.154297,344.291168 1171.287354,1130.853638 1168.058105,1144.040039
	C1096.006226,1144.040039 1023.841980,1144.040039 950.687012,1144.040039
	C958.130981,1101.533203 965.460205,1059.681519 972.902466,1017.184326
	C968.297607,1017.427185 966.682129,1020.639526 964.489807,1022.670532
	C936.380127,1048.710938 908.481750,1074.980835 880.232727,1100.868408
	C871.902527,1108.502319 862.784119,1115.308105 853.770325,1122.155518
	C843.632385,1129.856934 832.448181,1135.729126 819.525391,1139.885742
M740.999390,948.914001
	C821.945984,948.691223 902.892578,948.469116 983.839050,948.220398
	C984.094055,948.219666 984.354797,947.843323 984.600342,947.628174
	C984.850891,947.408630 985.085876,947.171448 985.381348,946.891052
	C1009.778503,808.459534 1034.182373,669.989441 1058.601807,531.432007
	C1040.892212,529.450195 659.856995,530.185913 652.449402,532.146362
	C628.057739,670.515381 603.638062,809.043152 579.290283,947.163147
	C580.934631,948.088196 581.491455,948.675293 582.049438,948.676453
	C634.366028,948.784424 686.682678,948.847778 740.999390,948.914001
z" />
	<path fill="#009db6" opacity="1.000000" stroke="none" d="
M2449.246826,842.187256
	C2452.142578,827.862488 2455.293945,813.583801 2457.892090,799.205322
	C2473.105469,715.016235 2488.204834,630.806519 2503.312744,546.598450
	C2515.540527,478.445892 2527.721191,410.285004 2539.951904,342.132996
	C2540.351074,339.909698 2541.067139,337.743347 2541.743896,335.131744
	C2613.965088,335.131744 2685.783936,335.131744 2758.914062,335.131744
	C2757.664062,343.218384 2756.686523,350.683838 2755.339111,358.081879
	C2742.216064,430.131256 2728.928711,502.151001 2715.998291,574.234863
	C2714.458496,582.819641 2711.467285,589.653320 2704.687012,595.473999
	C2696.891357,602.166016 2690.095947,610.023376 2681.866699,618.214722
	C2652.991943,646.210876 2625.094238,673.343140 2597.248047,700.528381
	C2551.074707,745.605469 2504.959717,790.741882 2458.718506,835.749084
	C2456.024658,838.371216 2452.425049,840.062683 2449.246826,842.187256
z" />
	<path fill="#FEFEFE" opacity="1.000000" stroke="none" d="
M2448.770020,842.555176
	C2452.425049,840.062683 2456.024658,838.371216 2458.718506,835.749084
	C2504.959717,790.741882 2551.074707,745.605469 2597.248047,700.528381
	C2625.094238,673.343140 2652.991943,646.210876 2681.416016,618.729309
	C2679.029053,636.106812 2676.271240,653.841675 2673.124023,671.507019
	C2661.454834,737.007751 2649.671875,802.488281 2637.902832,867.971191
	C2626.192627,933.126892 2614.437012,998.274475 2602.726807,1063.430054
	C2599.725586,1080.128174 2596.832764,1096.845947 2593.854004,1113.548218
	C2593.388672,1116.156372 2592.728516,1118.729614 2592.029785,1121.903320
	C2519.495605,1121.903320 2447.112061,1121.903320 2374.087891,1121.903320
	C2377.735352,1101.717896 2381.249268,1082.129639 2384.817383,1062.551147
	C2395.911377,1001.678955 2407.093262,940.822693 2418.030518,879.922424
	C2419.146729,873.707520 2421.523193,868.899414 2426.244629,864.632812
	C2433.890137,857.723694 2440.972900,850.191895 2448.770020,842.555176
z" />
	<path fill="#FEFEFE" opacity="1.000000" stroke="none" d="
M958.034119,180.033234
	C964.422546,173.644974 970.491333,167.924744 976.163513,161.835052
	C989.966309,147.016418 1006.951721,140.427094 1027.085205,140.822876
	C1044.066406,141.156693 1061.059570,140.891434 1078.047363,140.891418
	C1159.988525,140.891418 1241.929565,140.891418 1323.870728,140.891418
	C1327.507690,140.891418 1331.144653,140.891418 1336.357178,140.891418
	C1327.874756,181.962265 1319.576538,222.140808 1311.157959,262.902740
	C1308.396240,263.152557 1305.834961,263.587891 1303.273926,263.586670
	C1194.687378,263.535034 1086.100708,263.457367 977.514160,263.341003
	C965.195496,263.327820 952.866150,263.345947 940.561157,262.858704
	C923.660278,262.189453 912.127869,248.772156 913.638733,232.284363
	C914.253906,225.570953 917.593506,220.441040 922.196960,215.856415
	C933.997742,204.103897 945.757751,192.310379 958.034119,180.033234
z" />
	<path fill="#009db6" opacity="1.000000" stroke="none" d="
M3466.033691,1426.219604
	C3466.049316,1437.895264 3466.516357,1438.260864 3479.912598,1436.845703
	C3479.222168,1441.547729 3478.577148,1445.940674 3477.982910,1449.988892
	C3462.294678,1456.054565 3454.317627,1454.020020 3445.029297,1441.699707
	C3442.646973,1443.322021 3440.248779,1444.971558 3437.834229,1446.596680
	C3427.955811,1453.244995 3416.998291,1455.300415 3405.393066,1453.632080
	C3389.290039,1451.317139 3377.161865,1439.604126 3374.578125,1422.493042
	C3372.004639,1405.448853 3373.324707,1388.598389 3381.365479,1372.795166
	C3391.369385,1353.133179 3407.735107,1343.220825 3429.350098,1342.158813
	C3437.579346,1341.754639 3445.898926,1343.197510 3454.178467,1343.782471
	C3455.771973,1343.895020 3457.370850,1343.933228 3459.907959,1344.048584
	C3462.393311,1329.384155 3464.818604,1315.075317 3467.325684,1300.282715
	C3473.409424,1300.282715 3478.917236,1300.282715 3485.926758,1300.282715
	C3479.754639,1342.337769 3472.707520,1383.812744 3466.033691,1426.219604
M3453.793701,1384.706543
	C3454.767822,1377.261108 3455.741943,1369.815674 3456.745361,1362.144531
	C3442.968506,1357.458740 3430.180176,1356.190186 3417.792480,1361.645752
	C3412.236816,1364.092285 3406.545898,1368.011597 3402.948975,1372.792114
	C3392.368652,1386.853760 3389.758545,1403.105591 3394.194580,1420.048462
	C3397.580078,1432.979980 3409.626953,1440.316895 3422.686768,1437.075928
	C3429.230469,1435.452026 3435.312988,1431.573486 3441.278564,1428.147827
	C3445.758057,1425.575684 3448.070801,1421.347290 3448.767578,1415.923096
	C3450.035156,1406.057129 3451.942627,1396.273315 3453.793701,1384.706543
z" />
	<path fill="#009db6" opacity="1.000000" stroke="none" d="
M3185.679199,1447.957764
	C3176.038330,1453.574829 3166.273193,1454.998413 3156.127930,1453.746338
	C3139.732666,1451.722900 3127.112549,1439.728882 3124.541748,1422.316895
	C3122.028564,1405.296509 3123.353760,1388.474976 3131.410889,1372.705200
	C3141.432373,1353.089355 3157.784668,1343.218506 3179.357666,1342.158569
	C3187.574463,1341.754883 3195.880615,1343.193359 3204.147461,1343.777588
	C3205.741455,1343.890259 3207.340576,1343.935059 3209.912109,1344.057617
	C3212.384033,1329.432983 3214.799805,1315.141846 3217.297852,1300.362793
	C3223.600342,1300.362793 3229.356201,1300.362793 3235.989014,1300.362793
	C3234.335693,1311.274170 3232.878418,1321.399902 3231.256104,1331.499146
	C3226.301758,1362.350342 3221.281006,1393.191040 3216.298828,1424.037842
	C3216.086670,1425.349854 3215.948730,1426.678955 3215.866211,1428.005737
	C3215.354492,1436.219727 3217.049072,1437.846436 3225.531494,1437.290039
	C3226.517090,1437.225464 3227.494385,1437.033569 3229.910645,1436.706665
	C3229.221436,1441.506470 3228.596680,1445.859863 3228.020996,1449.869141
	C3212.715332,1456.126953 3204.180176,1453.999512 3195.107422,1441.683228
	C3192.214600,1443.638428 3189.278076,1445.623413 3185.679199,1447.957764
M3179.701172,1435.382080
	C3181.764404,1434.311523 3183.869873,1433.314087 3185.883789,1432.157471
	C3193.794434,1427.614380 3198.895264,1421.459473 3199.710449,1411.760254
	C3200.515137,1402.185669 3202.552979,1392.717651 3203.960693,1383.189697
	C3204.966064,1376.384399 3205.824219,1369.557129 3206.797852,1362.372192
	C3195.054443,1357.963623 3184.129883,1357.058716 3172.831299,1359.798828
	C3164.407227,1361.841675 3157.332031,1366.064453 3152.435791,1373.144653
	C3142.634766,1387.316284 3139.885010,1403.080078 3144.098145,1419.698730
	C3147.241699,1432.097778 3157.754150,1438.889771 3170.442383,1437.620605
	C3173.063232,1437.358521 3175.622070,1436.477539 3179.701172,1435.382080
z" />
	<path fill="#009db6" opacity="1.000000" stroke="none" d="
M2869.970947,1351.960693
	C2880.124268,1346.163818 2890.331299,1341.112183 2902.698486,1341.859375
	C2918.455811,1342.811157 2931.342285,1350.909180 2935.934326,1366.059082
	C2943.807861,1392.036133 2939.296387,1416.167480 2921.487549,1436.996704
	C2917.510986,1441.647827 2911.911133,1445.346680 2906.384033,1448.157349
	C2887.472412,1457.774536 2854.916504,1455.889893 2834.975098,1443.921021
	C2842.605225,1395.337158 2850.325195,1346.179688 2858.144043,1296.393066
	C2864.128662,1296.393066 2869.604736,1296.393066 2876.167969,1296.393066
	C2875.979980,1314.862915 2870.090820,1332.398804 2869.341553,1351.126099
	C2869.608887,1351.833496 2869.789795,1351.897095 2869.970947,1351.960693
M2865.715088,1373.519043
	C2862.251709,1393.377441 2858.788330,1413.235840 2855.339111,1433.012695
	C2863.217529,1437.073975 2870.440430,1437.749268 2877.729248,1437.779297
	C2897.157959,1437.859253 2910.675293,1428.181030 2916.967529,1409.848633
	C2920.271240,1400.222656 2921.089355,1390.261963 2919.734619,1380.284790
	C2917.580811,1364.419312 2904.169922,1355.609619 2888.505615,1359.126099
	C2879.717041,1361.099121 2872.699463,1365.873779 2865.715088,1373.519043
z" />
	<path fill="#009db6" opacity="1.000000" stroke="none" d="
M2498.925781,1538.206787
	C2504.440674,1538.242432 2509.196533,1537.806885 2513.730225,1538.615845
	C2529.939941,1541.508423 2541.460693,1554.047241 2543.653809,1571.839478
	C2545.511963,1586.911499 2544.109863,1601.820923 2537.937256,1615.940674
	C2528.437500,1637.671143 2511.411621,1648.781006 2488.050781,1649.865479
	C2478.501709,1650.308960 2468.878418,1649.148315 2458.123779,1648.665039
	C2456.060059,1660.288940 2453.931885,1672.276367 2451.702148,1684.835815
	C2445.771973,1684.835815 2440.309082,1684.835815 2433.260010,1684.835815
	C2440.206543,1636.566406 2448.218262,1589.188599 2455.843506,1541.325684
	C2461.257324,1541.325684 2465.811768,1541.325684 2470.981445,1541.325684
	C2471.561768,1543.801636 2472.142334,1546.278320 2472.653809,1548.459839
	C2481.089600,1545.089233 2489.576904,1541.697998 2498.925781,1538.206787
M2507.387207,1626.682007
	C2522.748291,1617.306641 2528.759766,1587.276367 2523.632080,1571.498413
	C2520.857910,1562.962891 2515.341553,1557.391113 2506.424805,1555.197632
	C2494.973145,1552.380615 2485.648926,1556.820068 2476.800049,1563.303711
	C2472.598389,1566.382324 2470.136963,1570.148315 2469.376465,1575.591553
	C2467.264893,1590.706055 2464.514893,1605.730347 2462.143799,1620.810303
	C2461.693848,1623.671387 2461.826904,1626.624268 2461.703369,1629.265259
	C2476.318115,1635.934692 2491.713623,1635.228760 2507.387207,1626.682007
z" />
	<path fill="#009db6" opacity="1.000000" stroke="none" d="
M3251.340332,1428.145752
	C3246.892334,1413.932373 3247.460693,1400.400513 3250.988037,1386.968750
	C3261.272461,1347.809570 3299.829834,1330.736084 3335.707031,1349.312012
	C3338.446777,1347.807007 3341.026855,1345.703491 3343.947998,1344.985229
	C3346.663330,1344.317505 3349.742188,1345.126465 3353.621826,1345.337646
	C3351.505127,1359.158203 3349.543457,1372.222778 3347.494141,1385.273438
	C3345.428711,1398.427979 3343.303711,1411.573364 3341.154053,1424.714355
	C3339.248047,1436.363647 3340.792969,1438.024780 3353.717773,1437.151123
	C3353.717773,1440.032349 3353.847168,1442.876709 3353.686523,1445.704590
	C3353.469971,1449.516602 3351.447510,1451.419434 3347.549561,1452.309448
	C3335.729248,1455.008545 3328.243408,1452.526245 3320.698486,1442.775513
	C3287.265381,1461.563354 3263.835205,1456.854614 3251.340332,1428.145752
M3325.874023,1402.705933
	C3327.266846,1393.844116 3328.789795,1385.000122 3330.017822,1376.115479
	C3331.387695,1366.206177 3329.407715,1363.316406 3319.723633,1360.190063
	C3300.591797,1354.013794 3280.867920,1362.888794 3272.494629,1381.443359
	C3267.549316,1392.402466 3266.613525,1403.938354 3268.284180,1415.633911
	C3269.346924,1423.077148 3272.652344,1429.576904 3279.368408,1433.777344
	C3296.012939,1444.186646 3321.236572,1432.601440 3324.081543,1413.260864
	C3324.516602,1410.303345 3325.126221,1407.371582 3325.874023,1402.705933
z" />
	<path fill="#009db6" opacity="1.000000" stroke="none" d="
M2803.725830,1421.499023
	C2803.425781,1423.317627 2803.185059,1424.290039 2803.031738,1425.276001
	C2801.361572,1436.021606 2802.813477,1437.645874 2813.545654,1437.146851
	C2814.147705,1437.118774 2814.764648,1437.405518 2815.375244,1437.546387
	C2815.638184,1438.135986 2816.190674,1438.764160 2816.117188,1439.307861
	C2815.488525,1443.958862 2817.577637,1450.171143 2810.907715,1451.836792
	C2802.732910,1453.877930 2794.326904,1454.837036 2787.284180,1448.434448
	C2785.600342,1446.903687 2784.468750,1444.765259 2782.750732,1442.460205
	C2780.605469,1443.797729 2778.398193,1445.103394 2776.262451,1446.517090
	C2765.724854,1453.492554 2754.002197,1455.564697 2741.835449,1453.508911
	C2726.043945,1450.840454 2716.421143,1440.609253 2712.576416,1425.522705
	C2707.216797,1404.490723 2710.479736,1384.430298 2722.326172,1366.173218
	C2739.022705,1340.441406 2774.962158,1335.283081 2798.333984,1349.748291
	C2802.354004,1343.617798 2808.301758,1344.042358 2815.611084,1345.775146
	C2811.651855,1370.933228 2807.739014,1395.796143 2803.725830,1421.499023
M2786.112305,1412.829834
	C2788.120605,1400.360596 2790.280029,1387.913086 2792.086182,1375.414673
	C2793.392090,1366.381226 2791.615723,1363.825195 2782.940430,1360.597046
	C2764.018799,1353.556152 2743.217041,1362.424805 2734.605225,1381.198486
	C2730.039795,1391.151367 2728.973877,1401.653076 2729.870850,1412.412720
	C2731.139404,1427.626099 2740.239990,1436.951538 2754.374512,1437.714111
	C2768.856201,1438.495361 2783.381836,1427.805176 2786.112305,1412.829834
z" />
	<path fill="#009db6" opacity="1.000000" stroke="none" d="
M2978.791504,1647.973755
	C2963.870850,1642.142578 2956.713867,1630.888794 2954.481201,1616.613892
	C2952.516357,1604.051270 2953.146484,1591.413208 2957.062500,1579.060791
	C2970.525635,1536.593750 3015.395752,1529.488525 3041.298584,1545.697266
	C3045.243896,1540.376953 3050.692383,1539.647217 3057.986084,1541.949463
	C3057.703125,1545.225342 3057.612793,1548.735718 3057.068115,1552.174194
	C3053.526367,1574.529419 3049.885742,1596.869019 3046.279053,1619.213989
	C3046.226074,1619.542725 3046.192627,1619.874634 3046.150391,1620.205078
	C3044.559082,1632.670166 3046.088135,1634.258301 3059.865967,1632.950439
	C3059.091553,1637.649536 3058.368652,1642.035278 3057.699463,1646.097168
	C3042.279785,1651.818237 3034.470215,1649.964355 3025.256836,1638.442017
	C3011.676025,1648.990479 2996.504150,1652.952637 2978.791504,1647.973755
M3023.814209,1622.514648
	C3025.336914,1619.345459 3027.617432,1616.319702 3028.249512,1612.981812
	C3030.903320,1598.968018 3033.087891,1584.864990 3035.395996,1570.786621
	C3036.703125,1562.811157 3035.852783,1561.316528 3028.293701,1557.686646
	C3012.798096,1550.245605 2992.898438,1554.896240 2982.705566,1568.974854
	C2972.588379,1582.948853 2969.823242,1598.697754 2974.186035,1615.361572
	C2977.769775,1629.051025 2990.510986,1636.665405 3004.232178,1632.779297
	C3010.738525,1630.936523 3016.565430,1626.693604 3023.814209,1622.514648
z" />
	<path fill="#009db6" opacity="1.000000" stroke="none" d="
M3551.391357,1409.203125
	C3540.016602,1408.430176 3529.526367,1407.630371 3519.038086,1406.830811
	C3517.671631,1420.948242 3524.663574,1431.859619 3537.453857,1435.944702
	C3547.437500,1439.133301 3557.192383,1437.530396 3566.927490,1434.904175
	C3570.740479,1433.875610 3574.508789,1432.681763 3578.329102,1431.553711
	C3581.111816,1444.138916 3578.692139,1448.404785 3567.395752,1451.499634
	C3556.640625,1454.446289 3545.658203,1455.163574 3534.753418,1453.210693
	C3513.447998,1449.395630 3501.009033,1435.883301 3498.635498,1413.812134
	C3496.756592,1396.341553 3500.719971,1380.006470 3510.804443,1365.486572
	C3523.687500,1346.936890 3548.192383,1337.787109 3569.820312,1343.113037
	C3584.392334,1346.701294 3592.957520,1355.725708 3594.084717,1368.678223
	C3595.551514,1385.532959 3589.397461,1398.212891 3575.447510,1403.856445
	C3568.193604,1406.791138 3560.028809,1407.475464 3551.391357,1409.203125
M3559.868896,1358.540771
	C3538.948242,1357.613281 3523.876953,1369.200439 3520.592041,1389.419678
	C3533.788086,1392.776978 3546.992920,1395.847778 3560.712646,1392.227661
	C3570.217285,1389.719604 3575.493652,1383.177002 3575.497314,1374.532837
	C3575.500244,1366.701782 3571.570557,1362.322388 3559.868896,1358.540771
z" />
	<path fill="#009db6" opacity="1.000000" stroke="none" d="
M2370.119141,1545.719238
	C2388.714111,1565.642822 2381.396240,1594.113770 2356.208984,1602.068359
	C2341.537109,1606.701904 2326.621582,1605.642090 2311.717773,1603.176880
	C2309.532227,1602.815430 2307.331055,1602.550659 2305.117188,1602.238403
	C2303.635742,1616.899658 2310.636475,1627.849487 2323.447998,1631.942993
	C2333.437256,1635.134766 2343.198242,1633.531372 2352.938965,1630.900269
	C2356.755615,1629.869263 2360.528564,1628.675049 2364.349121,1627.546997
	C2367.085205,1640.217651 2364.829590,1645.125488 2353.319824,1647.289551
	C2343.614990,1649.114136 2333.438965,1650.310669 2323.662109,1649.496826
	C2301.250977,1647.631592 2287.084229,1632.808838 2284.626465,1609.720703
	C2282.765625,1592.238403 2286.724854,1575.878418 2296.880615,1561.389893
	C2313.293945,1537.974243 2345.704834,1530.891113 2370.119141,1545.719238
M2345.868896,1554.540771
	C2324.948242,1553.613281 2309.876953,1565.200317 2306.592041,1585.419678
	C2319.788086,1588.776978 2332.992920,1591.847778 2346.712646,1588.227661
	C2356.217285,1585.719482 2361.493408,1579.177002 2361.497070,1570.532837
	C2361.500244,1562.701782 2357.570557,1558.322388 2345.868896,1554.540771
z" />
	<path fill="#009db6" opacity="1.000000" stroke="none" d="
M2560.102539,1612.952148
	C2558.590820,1596.134766 2560.325439,1580.812988 2568.492676,1566.644165
	C2580.788574,1545.312622 2603.033691,1534.641479 2628.852539,1538.676514
	C2644.434082,1541.111450 2653.933350,1551.330566 2655.413574,1565.704712
	C2657.013428,1581.242310 2649.544922,1594.440918 2635.501465,1600.436646
	C2624.506348,1605.130859 2612.887695,1605.835449 2601.157471,1604.879028
	C2594.279053,1604.318237 2587.444824,1603.221069 2580.618652,1602.368652
	C2578.435303,1616.334473 2585.632324,1627.981934 2598.399902,1631.951660
	C2608.384033,1635.055908 2618.183105,1633.668701 2627.933105,1630.953369
	C2632.055664,1629.805298 2636.111328,1628.416870 2640.137207,1627.156616
	C2640.597900,1628.136230 2641.165039,1628.749878 2641.094971,1629.279053
	C2638.977051,1645.270874 2639.040771,1645.701294 2622.709473,1648.486816
	C2614.599854,1649.869995 2606.044189,1650.375366 2597.895752,1649.456543
	C2577.238281,1647.127197 2565.768311,1635.761597 2560.102539,1612.952148
M2602.730957,1557.103882
	C2591.049072,1562.817627 2583.986816,1571.887085 2581.137939,1584.859009
	C2593.185791,1589.089844 2604.322510,1590.481323 2615.664307,1589.483276
	C2619.538330,1589.142334 2623.530029,1587.895630 2627.044922,1586.190552
	C2634.074463,1582.780273 2637.167725,1575.907593 2636.069092,1567.862671
	C2635.077393,1560.599854 2630.378174,1557.080444 2623.754150,1555.191528
	C2617.019043,1553.270996 2610.597168,1554.531982 2602.730957,1557.103882
z" />
	<path fill="#009db6" opacity="1.000000" stroke="none" d="
M2477.351562,1361.017334
	C2489.567627,1384.526978 2485.790771,1416.228271 2468.950928,1435.573242
	C2453.974365,1452.777710 2427.047607,1459.194214 2405.928711,1450.462402
	C2392.675781,1444.982666 2384.058105,1435.078125 2381.265137,1421.151367
	C2377.184326,1400.802612 2379.873047,1381.312866 2392.325928,1364.089600
	C2406.823486,1344.038330 2435.614990,1336.188965 2458.568848,1345.577759
	C2466.198486,1348.698730 2472.224854,1353.712402 2477.351562,1361.017334
M2457.923096,1420.580688
	C2465.232178,1407.557861 2467.789062,1393.795532 2463.997314,1379.187256
	C2461.252686,1368.612183 2454.594727,1361.930420 2443.778076,1359.357300
	C2429.096436,1355.864624 2414.450928,1361.897583 2406.303711,1375.764038
	C2398.743652,1388.630493 2396.502686,1402.591553 2400.262451,1417.159302
	C2402.776855,1426.901123 2409.041016,1433.103760 2418.796143,1436.300293
	C2431.141846,1440.345703 2448.810547,1435.388794 2457.923096,1420.580688
z" />
	<path fill="#009db6" opacity="1.000000" stroke="none" d="
M2607.125977,1449.008667
	C2599.845459,1454.181152 2592.352539,1454.114136 2584.872314,1451.753174
	C2578.101807,1449.616333 2574.800049,1444.052612 2575.465820,1434.890381
	C2576.188232,1424.947754 2577.853516,1415.074463 2579.078369,1405.167358
	C2580.139404,1396.584839 2581.792725,1388.017090 2582.058594,1379.408081
	C2582.531494,1364.095703 2572.627441,1355.887695 2557.562256,1358.867798
	C2552.429199,1359.883057 2547.349854,1361.916504 2542.672119,1364.314941
	C2534.978760,1368.259521 2530.103516,1373.868896 2529.002441,1383.494629
	C2526.812012,1402.649048 2523.121338,1421.632690 2520.005615,1440.679443
	C2519.478516,1443.900024 2518.726318,1447.083496 2518.000732,1450.667725
	C2511.844482,1450.667725 2506.342773,1450.667725 2499.401855,1450.667725
	C2505.014404,1415.197388 2510.500977,1380.523804 2516.061768,1345.379883
	C2520.409668,1345.379883 2523.961914,1345.379883 2528.076660,1345.379883
	C2529.196045,1348.202637 2530.360840,1351.139771 2531.834717,1354.855957
	C2534.123535,1353.532104 2536.125244,1352.601318 2537.875000,1351.324951
	C2548.330078,1343.698486 2560.075195,1341.048218 2572.801025,1342.073853
	C2589.822754,1343.445801 2601.333740,1354.724976 2601.781982,1371.878662
	C2602.023438,1381.113037 2600.555908,1390.424316 2599.451172,1399.651855
	C2598.462646,1407.905762 2596.887939,1416.088501 2595.618652,1424.309814
	C2593.654785,1437.030640 2595.015625,1438.442871 2608.980713,1436.771729
	C2608.446533,1440.792114 2607.947998,1444.545044 2607.125977,1449.008667
z" />
	<path fill="#009db6" opacity="1.000000" stroke="none" d="
M2657.569824,1393.652344
	C2656.255371,1402.072876 2654.601807,1409.593140 2654.002930,1417.196289
	C2652.882324,1431.420288 2658.151123,1436.850220 2672.567383,1436.219971
	C2679.146240,1435.932373 2685.666748,1434.302490 2692.233887,1433.278198
	C2694.671875,1444.655518 2692.366699,1449.171997 2681.417236,1451.303955
	C2674.631592,1452.625244 2667.483154,1453.427246 2660.638428,1452.835327
	C2643.321289,1451.337646 2633.927979,1441.208984 2634.473633,1423.792969
	C2634.835938,1412.227173 2637.295654,1400.722290 2638.901367,1389.201904
	C2640.090576,1380.667236 2641.415771,1372.151367 2642.878418,1362.290161
	C2637.350586,1361.843506 2632.588623,1361.458618 2626.521484,1360.968384
	C2627.328613,1355.704956 2628.053467,1350.977051 2628.926758,1345.281616
	C2634.683350,1344.796021 2640.166748,1344.333496 2646.357178,1343.811401
	C2648.170410,1338.859741 2650.020508,1333.917847 2651.792236,1328.947876
	C2655.703369,1317.974243 2655.687500,1317.968506 2668.522217,1320.486206
	C2667.724854,1327.864868 2666.916260,1335.343872 2665.954346,1344.244629
	C2679.210938,1344.244629 2691.989258,1344.244629 2706.067871,1344.244629
	C2705.006348,1350.596069 2704.205811,1355.386963 2703.204102,1361.381836
	C2689.791260,1361.381836 2676.638184,1361.381836 2662.741943,1361.381836
	C2660.944824,1372.591309 2659.325684,1382.690430 2657.569824,1393.652344
z" />
	<path fill="#009db6" opacity="1.000000" stroke="none" d="
M2312.656006,1429.411133
	C2327.644043,1441.363159 2343.101807,1438.217896 2358.534668,1432.733765
	C2358.974609,1433.667236 2359.542480,1434.283813 2359.484131,1434.834106
	C2357.937988,1449.438843 2356.031494,1451.781982 2341.664062,1453.496826
	C2335.108398,1454.279297 2328.261230,1454.343628 2321.742432,1453.391113
	C2299.417725,1450.128906 2285.900146,1435.292969 2284.604004,1411.844238
	C2284.115723,1403.014526 2285.068359,1393.753418 2287.295654,1385.191528
	C2293.819092,1360.116333 2314.255127,1343.950073 2340.144531,1342.104736
	C2354.890869,1341.053589 2362.668701,1342.197754 2372.772217,1347.101562
	C2372.550781,1349.454590 2372.406494,1352.052979 2372.034668,1354.618530
	C2371.707031,1356.877930 2371.125244,1359.100464 2370.516113,1362.004517
	C2367.966064,1361.545654 2365.773438,1361.274414 2363.644775,1360.747070
	C2354.165039,1358.399292 2344.745605,1357.289795 2335.011475,1359.753052
	C2322.514893,1362.915283 2313.047363,1369.952759 2308.281738,1381.763916
	C2301.790283,1397.853516 2299.922607,1414.078979 2312.656006,1429.411133
z" />
	<path fill="#009db6" opacity="1.000000" stroke="none" d="
M2889.789795,1546.253662
	C2888.967529,1550.575562 2888.197754,1554.083862 2887.307129,1558.143188
	C2882.275146,1557.088623 2877.838135,1556.062744 2873.364258,1555.236572
	C2837.885010,1548.685303 2811.060791,1579.662231 2822.454346,1613.999146
	C2827.105225,1628.015259 2842.059326,1636.025146 2858.854492,1633.246826
	C2864.314697,1632.343384 2869.674316,1630.829834 2875.119385,1629.586304
	C2876.681396,1643.468750 2875.370850,1645.536377 2863.404785,1648.469849
	C2852.152100,1651.228638 2840.908447,1650.829102 2829.948975,1647.314819
	C2814.145996,1642.247559 2804.696533,1630.783325 2802.729004,1614.778442
	C2801.416748,1604.105713 2801.757812,1592.664551 2804.162354,1582.212158
	C2810.053223,1556.603882 2830.708008,1539.829346 2856.968994,1538.306274
	C2865.810059,1537.793579 2874.795898,1539.264160 2883.674561,1540.211426
	C2886.496094,1540.512329 2889.754395,1541.395020 2889.789795,1546.253662
z" />
	<path fill="#009db6" opacity="1.000000" stroke="none" d="
M3016.749268,1400.701904
	C3022.255859,1366.439209 3027.581543,1333.033936 3032.978271,1299.182373
	C3036.727051,1298.903198 3039.630859,1298.552246 3042.539307,1298.510620
	C3045.145996,1298.473145 3047.757324,1298.776123 3051.719482,1299.008179
	C3050.804199,1305.606812 3050.068604,1311.693359 3049.103027,1317.743286
	C3043.550293,1352.537964 3037.874023,1387.313110 3032.388672,1422.118408
	C3030.210938,1435.934814 3033.510498,1438.952759 3047.367676,1436.543701
	C3048.592041,1436.330688 3049.865479,1436.401611 3051.094727,1436.341797
	C3052.383301,1449.177246 3051.124512,1450.937500 3039.755371,1452.680542
	C3038.769043,1452.831909 3037.788574,1453.042480 3036.796631,1453.129150
	C3019.014404,1454.685425 3010.343750,1445.898315 3012.500732,1428.174927
	C3013.584961,1419.270020 3015.195557,1410.429199 3016.749268,1400.701904
z" />
	<path fill="#009db6" opacity="1.000000" stroke="none" d="
M2688.283691,1628.461548
	C2687.245117,1634.857178 2686.321777,1640.401245 2685.297852,1646.549561
	C2678.977295,1646.549561 2673.193604,1646.549561 2666.395020,1646.549561
	C2671.957764,1611.400757 2677.403809,1576.989868 2682.989014,1541.700195
	C2688.414307,1541.700195 2693.485107,1541.700195 2698.997803,1541.700195
	C2699.396484,1544.701294 2699.780029,1547.587769 2700.303711,1551.531494
	C2712.852295,1542.624756 2725.381348,1534.606323 2742.278809,1539.397705
	C2741.524414,1544.867065 2740.812256,1550.031006 2739.990723,1555.987793
	C2736.915527,1555.987793 2734.344727,1556.116333 2731.790283,1555.966064
	C2718.708984,1555.197021 2708.507080,1560.938110 2700.447998,1570.554199
	C2698.068604,1573.393188 2696.778564,1577.567505 2696.094238,1581.330811
	C2693.296631,1596.714844 2690.926758,1612.176880 2688.283691,1628.461548
z" />
	<path fill="#009db6" opacity="1.000000" stroke="none" d="
M2965.326904,1451.138306
	C2957.571777,1446.469971 2956.676270,1439.621582 2957.664795,1432.426758
	C2959.924316,1415.984985 2962.490967,1399.584717 2965.023682,1383.181641
	C2966.938232,1370.781006 2968.993164,1358.402222 2971.072021,1345.476562
	C2977.530029,1345.476562 2983.266602,1345.476562 2989.897217,1345.476562
	C2987.651123,1360.035522 2985.560059,1373.752563 2983.412354,1387.460693
	C2981.408203,1400.252319 2979.328369,1413.032227 2977.310791,1425.821777
	C2975.653564,1436.326294 2977.298096,1437.969971 2988.198975,1436.882446
	C2988.808594,1436.821655 2989.447754,1437.059326 2990.064453,1437.156738
	C2990.303467,1437.763672 2990.790039,1438.379150 2990.728516,1438.933838
	C2989.289307,1451.900879 2986.629150,1454.179443 2973.781738,1453.142212
	C2971.161377,1452.930786 2968.593750,1452.068970 2965.326904,1451.138306
z" />
	<path fill="#009db6" opacity="1.000000" stroke="none" d="
M2922.206543,1631.576416
	C2926.510010,1632.649536 2930.276611,1633.180176 2934.308838,1633.748291
	C2934.343506,1633.845459 2934.797607,1634.467773 2934.731689,1635.029541
	C2933.224121,1647.944702 2931.149902,1649.763062 2918.677246,1649.221558
	C2907.448486,1648.734009 2901.361572,1643.429810 2901.532715,1632.837891
	C2901.660889,1624.919800 2903.061523,1616.993652 2904.259766,1609.126587
	C2907.459229,1588.120850 2910.847656,1567.143677 2914.192871,1546.160278
	C2914.397705,1544.876221 2914.881348,1543.636719 2915.457031,1541.587158
	C2921.196045,1541.587158 2926.952881,1541.587158 2933.348633,1541.587158
	C2933.174316,1544.157349 2933.191650,1546.397217 2932.848877,1548.580566
	C2928.990723,1573.181274 2925.019531,1597.764404 2921.258789,1622.379761
	C2920.831299,1625.178345 2921.505859,1628.145020 2922.206543,1631.576416
z" />
	<path fill="#009db6" opacity="1.000000" stroke="none" d="
M2773.472900,1589.466431
	C2771.601318,1600.804443 2769.694824,1611.254761 2768.214355,1621.765381
	C2766.742188,1632.213867 2768.482666,1633.784668 2779.348877,1632.976196
	C2779.916260,1632.933960 2780.512695,1633.285522 2782.025879,1633.722046
	C2781.270996,1638.013672 2780.498047,1642.408813 2779.612549,1647.442627
	C2774.513916,1648.073730 2769.957031,1649.194336 2765.428223,1649.089600
	C2753.758301,1648.819580 2747.598145,1642.363770 2748.325439,1630.614624
	C2748.835693,1622.369385 2750.608643,1614.199829 2751.863281,1606.003662
	C2754.725342,1587.307861 2757.594238,1568.613159 2760.519043,1549.927002
	C2760.925293,1547.331299 2761.661621,1544.787231 2762.403320,1541.523682
	C2768.044189,1541.523682 2773.477539,1541.523682 2780.047119,1541.523682
	C2779.733887,1557.664185 2775.202881,1572.967651 2773.472900,1589.466431
z" />
	<path fill="#009db6" opacity="1.000000" stroke="none" d="
M3098.574219,1372.807861
	C3095.949463,1389.401611 3093.484619,1405.136475 3091.012451,1420.870239
	C3090.909424,1421.525269 3090.714355,1422.165649 3090.604736,1422.819946
	C3088.362793,1436.201538 3089.786377,1437.868530 3104.081543,1437.441895
	C3103.270020,1442.027344 3102.492188,1446.421875 3101.630859,1451.288696
	C3097.157715,1451.993774 3093.293213,1453.007812 3089.398438,1453.143066
	C3076.242432,1453.599976 3069.344727,1446.705566 3070.345459,1433.601807
	C3070.949951,1425.686401 3072.649658,1417.854370 3073.861084,1409.985474
	C3076.738525,1391.291992 3079.596436,1372.595337 3082.522461,1353.909424
	C3082.928711,1351.314087 3083.673096,1348.771851 3084.418457,1345.516235
	C3090.056885,1345.516235 3095.491943,1345.516235 3101.577881,1345.516235
	C3102.985840,1354.728027 3099.684326,1363.239258 3098.574219,1372.807861
z" />
	<path fill="#009db6" opacity="1.000000" stroke="none" d="
M2783.659912,1511.616211
	C2775.721924,1517.112671 2768.375244,1522.201416 2760.017822,1527.990234
	C2757.141113,1524.201416 2754.444580,1520.649780 2750.856689,1515.924194
	C2765.257324,1504.302979 2779.263916,1492.999634 2794.101562,1481.025757
	C2798.026123,1486.482178 2801.380859,1491.146362 2805.249268,1496.524536
	C2797.723389,1501.787476 2790.987305,1506.498047 2783.659912,1511.616211
z" />
	<path fill="#009db6" opacity="1.000000" stroke="none" d="
M3100.194336,1294.947266
	C3109.616943,1297.001221 3112.327393,1299.389404 3113.048096,1305.580566
	C3113.776123,1311.836670 3110.745117,1317.855957 3105.513672,1320.545044
	C3099.553467,1323.608521 3092.066650,1322.153931 3088.518799,1317.242798
	C3084.659912,1311.901367 3085.831055,1302.822021 3091.424805,1298.462158
	C3093.651367,1296.726807 3096.750488,1296.111450 3100.194336,1294.947266
z" />
	<path fill="#009db6" opacity="1.000000" stroke="none" d="
M2917.705078,1504.407227
	C2918.020508,1502.289795 2918.062256,1500.871338 2918.639648,1499.722046
	C2922.283936,1492.469727 2928.842773,1489.396362 2935.867676,1491.509399
	C2942.287598,1493.440552 2945.233154,1499.084106 2943.764404,1506.639038
	C2942.368652,1513.816528 2936.948486,1518.150513 2929.546875,1518.007690
	C2921.892578,1517.860107 2918.904297,1514.642700 2917.705078,1504.407227
z" />
	<path fill="#009db6" opacity="1.000000" stroke="none" d="
M2983.585205,1295.595215
	C2995.239258,1294.931152 2999.764404,1298.199463 3000.015869,1306.735352
	C3000.285156,1315.875122 2994.464355,1322.054810 2985.710938,1322.021118
	C2981.077393,1322.003296 2977.012451,1320.520874 2975.017822,1316.259155
	C2972.672363,1311.248047 2972.713379,1305.838745 2976.091309,1301.250244
	C2977.751953,1298.994507 2980.569580,1297.590454 2983.585205,1295.595215
z" />
	<path fill="transparent" opacity="1.000000" stroke="none" d="
M1757.999023,948.912842
	C1709.713379,948.912842 1662.427734,948.912842 1615.716431,948.912842
	C1614.897705,948.166077 1614.617188,947.968201 1614.415283,947.709167
	C1614.228027,947.468933 1614.015747,947.167664 1614.004150,946.885559
	C1613.963257,945.892151 1613.863159,944.870544 1614.033447,943.903320
	C1638.216919,806.574524 1662.422241,669.249634 1686.742798,531.265381
	C1821.731812,531.265381 1956.512329,531.265381 2092.775146,531.265381
	C2068.307617,670.081909 2043.897705,808.571960 2019.522949,946.863098
	C2019.108032,947.274902 2018.883423,947.523621 2018.631470,947.740479
	C2018.385742,947.951782 2018.112427,948.299011 2017.850464,948.299683
	C1931.566650,948.520447 1845.282959,948.716370 1757.999023,948.912842
z" />
	<path fill="#009db6" opacity="1.000000" stroke="none" d="
M3361.900879,477.890198
	C3361.226562,481.394012 3360.997803,485.057220 3359.810791,488.377838
	C3340.972412,541.074646 3322.085938,593.754639 3303.010498,646.366028
	C3299.487061,656.084167 3298.079346,665.777283 3301.077637,675.710449
	C3306.182861,692.622437 3321.171631,703.786621 3339.368652,703.908203
	C3371.031982,704.119873 3402.697998,703.975037 3434.362793,703.978088
	C3452.009033,703.979797 3469.655273,703.978394 3487.596924,703.978394
	C3483.613525,710.343506 3127.720947,1010.293335 3112.975830,1019.843689
	C3111.145508,1016.279175 3113.579590,1013.475830 3114.589844,1010.768799
	C3134.156494,958.337097 3153.878174,905.963013 3173.461914,853.537598
	C3175.315674,848.575012 3177.223389,843.435791 3177.814453,838.231873
	C3180.511230,814.485107 3162.466064,794.207520 3138.323486,794.072083
	C3096.326904,793.836426 3054.328369,794.002991 3012.330566,794.001038
	C3008.800537,794.000854 3005.270508,794.001038 2999.565186,794.001038
	C3003.172852,790.318909 3005.024414,788.154968 3007.147461,786.302002
	C3122.908691,685.268982 3238.691650,584.260925 3354.482666,483.262207
	C3356.488770,481.512299 3358.618652,479.904785 3361.331543,478.101990
	C3361.972412,477.973145 3361.900879,477.890167 3361.900879,477.890198
z" />
	<path fill="#009db6" opacity="1.000000" stroke="none" d="
M3362.008057,478.014862
	C3362.238037,478.076263 3362.432129,478.095947 3362.263672,478.002899
	C3361.900879,477.890167 3361.972412,477.973145 3362.008057,478.014862
z" />
	<path fill="transparent" opacity="1.000000" stroke="none" d="
M739.999390,948.914001
	C686.682678,948.847778 634.366028,948.784424 582.049438,948.676453
	C581.491455,948.675293 580.934631,948.088196 579.290283,947.163147
	C603.638062,809.043152 628.057739,670.515381 652.449402,532.146362
	C659.856995,530.185913 1040.892212,529.450195 1058.601807,531.432007
	C1034.182373,669.989441 1009.778503,808.459534 985.381348,946.891052
	C985.085876,947.171448 984.850891,947.408630 984.600342,947.628174
	C984.354797,947.843323 984.094055,948.219666 983.839050,948.220398
	C902.892578,948.469116 821.945984,948.691223 739.999390,948.914001
z" />
	<path fill="transparent" opacity="1.000000" stroke="none" d="
M3453.688232,1385.580933
	C3451.942627,1396.273315 3450.035156,1406.057129 3448.767578,1415.923096
	C3448.070801,1421.347290 3445.758057,1425.575684 3441.278564,1428.147827
	C3435.312988,1431.573486 3429.230469,1435.452026 3422.686768,1437.075928
	C3409.626953,1440.316895 3397.580078,1432.979980 3394.194580,1420.048462
	C3389.758545,1403.105591 3392.368652,1386.853760 3402.948975,1372.792114
	C3406.545898,1368.011597 3412.236816,1364.092285 3417.792480,1361.645752
	C3430.180176,1356.190186 3442.968506,1357.458740 3456.745361,1362.144531
	C3455.741943,1369.815674 3454.767822,1377.261108 3453.688232,1385.580933
z" />
	<path fill="transparent" opacity="1.000000" stroke="none" d="
M3178.955322,1435.631836
	C3175.622070,1436.477539 3173.063232,1437.358521 3170.442383,1437.620605
	C3157.754150,1438.889771 3147.241699,1432.097778 3144.098145,1419.698730
	C3139.885010,1403.080078 3142.634766,1387.316284 3152.435791,1373.144653
	C3157.332031,1366.064453 3164.407227,1361.841675 3172.831299,1359.798828
	C3184.129883,1357.058716 3195.054443,1357.963623 3206.797852,1362.372192
	C3205.824219,1369.557129 3204.966064,1376.384399 3203.960693,1383.189697
	C3202.552979,1392.717651 3200.515137,1402.185669 3199.710449,1411.760254
	C3198.895264,1421.459473 3193.794434,1427.614380 3185.883789,1432.157471
	C3183.869873,1433.314087 3181.764404,1434.311523 3178.955322,1435.631836
z" />
	<path fill="transparent" opacity="1.000000" stroke="none" d="
M2866.159912,1372.890381
	C2872.699463,1365.873779 2879.717041,1361.099121 2888.505615,1359.126099
	C2904.169922,1355.609619 2917.580811,1364.419312 2919.734619,1380.284790
	C2921.089355,1390.261963 2920.271240,1400.222656 2916.967529,1409.848633
	C2910.675293,1428.181030 2897.157959,1437.859253 2877.729248,1437.779297
	C2870.440430,1437.749268 2863.217529,1437.073975 2855.339111,1433.012695
	C2858.788330,1413.235840 2862.251709,1393.377441 2866.159912,1372.890381
z" />
	<path fill="#009db6" opacity="1.000000" stroke="none" d="
M2870.002930,1352.001221
	C2869.789795,1351.897095 2869.608887,1351.833496 2869.762207,1351.947510
	C2870.096436,1352.125000 2870.035156,1352.041870 2870.002930,1352.001221
z" />
	<path fill="transparent" opacity="1.000000" stroke="none" d="
M2506.785156,1627.117188
	C2491.713623,1635.228760 2476.318115,1635.934692 2461.703369,1629.265259
	C2461.826904,1626.624268 2461.693848,1623.671387 2462.143799,1620.810303
	C2464.514893,1605.730347 2467.264893,1590.706055 2469.376465,1575.591553
	C2470.136963,1570.148315 2472.598389,1566.382324 2476.800049,1563.303711
	C2485.648926,1556.820068 2494.973145,1552.380615 2506.424805,1555.197632
	C2515.341553,1557.391113 2520.857910,1562.962891 2523.632080,1571.498413
	C2528.759766,1587.276367 2522.748291,1617.306641 2506.785156,1627.117188
z" />
	<path fill="transparent" opacity="1.000000" stroke="none" d="
M3325.764648,1403.566895
	C3325.126221,1407.371582 3324.516602,1410.303345 3324.081543,1413.260864
	C3321.236572,1432.601440 3296.012939,1444.186646 3279.368408,1433.777344
	C3272.652344,1429.576904 3269.346924,1423.077148 3268.284180,1415.633911
	C3266.613525,1403.938354 3267.549316,1392.402466 3272.494629,1381.443359
	C3280.867920,1362.888794 3300.591797,1354.013794 3319.723633,1360.190063
	C3329.407715,1363.316406 3331.387695,1366.206177 3330.017822,1376.115479
	C3328.789795,1385.000122 3327.266846,1393.844116 3325.764648,1403.566895
z" />
	<path fill="transparent" opacity="1.000000" stroke="none" d="
M2786.027588,1413.655518
	C2783.381836,1427.805176 2768.856201,1438.495361 2754.374512,1437.714111
	C2740.239990,1436.951538 2731.139404,1427.626099 2729.870850,1412.412720
	C2728.973877,1401.653076 2730.039795,1391.151367 2734.605225,1381.198486
	C2743.217041,1362.424805 2764.018799,1353.556152 2782.940430,1360.597046
	C2791.615723,1363.825195 2793.392090,1366.381226 2792.086182,1375.414673
	C2790.280029,1387.913086 2788.120605,1400.360596 2786.027588,1413.655518
z" />
	<path fill="transparent" opacity="1.000000" stroke="none" d="
M3023.257324,1623.026367
	C3016.565430,1626.693604 3010.738525,1630.936523 3004.232178,1632.779297
	C2990.510986,1636.665405 2977.769775,1629.051025 2974.186035,1615.361572
	C2969.823242,1598.697754 2972.588379,1582.948853 2982.705566,1568.974854
	C2992.898438,1554.896240 3012.798096,1550.245605 3028.293701,1557.686646
	C3035.852783,1561.316528 3036.703125,1562.811157 3035.395996,1570.786621
	C3033.087891,1584.864990 3030.903320,1598.968018 3028.249512,1612.981812
	C3027.617432,1616.319702 3025.336914,1619.345459 3023.257324,1623.026367
z" />
	<path fill="transparent" opacity="1.000000" stroke="none" d="
M3560.660400,1358.710205
	C3571.570557,1362.322388 3575.500244,1366.701782 3575.497314,1374.532837
	C3575.493652,1383.177002 3570.217285,1389.719604 3560.712646,1392.227661
	C3546.992920,1395.847778 3533.788086,1392.776978 3520.592041,1389.419678
	C3523.876953,1369.200439 3538.948242,1357.613281 3560.660400,1358.710205
z" />
	<path fill="transparent" opacity="1.000000" stroke="none" d="
M2346.660400,1554.710205
	C2357.570557,1558.322388 2361.500244,1562.701782 2361.497070,1570.532837
	C2361.493408,1579.177002 2356.217285,1585.719482 2346.712646,1588.227661
	C2332.992920,1591.847778 2319.788086,1588.776978 2306.592041,1585.419678
	C2309.876953,1565.200317 2324.948242,1553.613281 2346.660400,1554.710205
z" />
	<path fill="transparent" opacity="1.000000" stroke="none" d="
M2603.449707,1556.785156
	C2610.597168,1554.531982 2617.019043,1553.270996 2623.754150,1555.191528
	C2630.378174,1557.080444 2635.077393,1560.599854 2636.069092,1567.862671
	C2637.167725,1575.907593 2634.074463,1582.780273 2627.044922,1586.190552
	C2623.530029,1587.895630 2619.538330,1589.142334 2615.664307,1589.483276
	C2604.322510,1590.481323 2593.185791,1589.089844 2581.137939,1584.859009
	C2583.986816,1571.887085 2591.049072,1562.817627 2603.449707,1556.785156
z" />
	<path fill="transparent" opacity="1.000000" stroke="none" d="
M2457.528320,1421.209351
	C2448.810547,1435.388794 2431.141846,1440.345703 2418.796143,1436.300293
	C2409.041016,1433.103760 2402.776855,1426.901123 2400.262451,1417.159302
	C2396.502686,1402.591553 2398.743652,1388.630493 2406.303711,1375.764038
	C2414.450928,1361.897583 2429.096436,1355.864624 2443.778076,1359.357300
	C2454.594727,1361.930420 2461.252686,1368.612183 2463.997314,1379.187256
	C2467.789062,1393.795532 2465.232178,1407.557861 2457.528320,1421.209351
z" />
</svg>
